<?xml version="1.0" encoding="UTF-8" standalone="no"?>
<svg
   width="700"
   zoomAndPan="magnify"
   viewBox="0 0 525 524.99999"
   height="700"
   preserveAspectRatio="xMidYMid"
   version="1.0"
   id="svg172"
   sodipodi:docname="logotyp.svg"
   inkscape:version="1.2.2 (732a01da63, 2022-12-09)"
   xmlns:inkscape="http://www.inkscape.org/namespaces/inkscape"
   xmlns:sodipodi="http://sodipodi.sourceforge.net/DTD/sodipodi-0.dtd"
   xmlns="http://www.w3.org/2000/svg"
   xmlns:svg="http://www.w3.org/2000/svg">
  <sodipodi:namedview
     id="namedview174"
     pagecolor="#ffffff"
     bordercolor="#000000"
     borderopacity="0.25"
     inkscape:showpageshadow="2"
     inkscape:pageopacity="0.0"
     inkscape:pagecheckerboard="0"
     inkscape:deskcolor="#d1d1d1"
     showgrid="false"
     inkscape:zoom="0.55518931"
     inkscape:cx="525.04613"
     inkscape:cy="595.29244"
     inkscape:window-width="1920"
     inkscape:window-height="991"
     inkscape:window-x="-9"
     inkscape:window-y="-9"
     inkscape:window-maximized="1"
     inkscape:current-layer="svg172" />
  <defs
     id="defs4">
    <g
       id="g2" />
  </defs>
  <path
     fill="#6f32d7"
     d="m 390.77829,39.822705 c 2.03516,1.003906 3.61719,2.578125 4.98047,4.367188 5.42969,12.007812 4.07422,28.296875 2.8711,41.062495 -0.19532,1.83985 -0.4336,3.67188 -0.6875,5.50391 l -0.15625,1.14844 c -1.38672,10.011722 -3.8711,19.605472 -7.05078,29.183592 l -0.32422,0.97656 c -1.23047,3.69922 -2.56641,7.26563 -4.25391,10.78125 -0.33984,0.7461 -0.67578,1.48828 -1.01172,2.23047 -5.64453,12.23438 -13.15234,23.80469 -22.35937,33.67969 -0.81641,0.89062 -1.6211,1.79687 -2.40625,2.71484 -1.70313,1.94922 -3.51172,3.77735 -5.34766,5.60157 l -0.96875,0.97265 c -1.99609,1.99219 -4.06641,3.90625 -6.21094,5.73438 l -0.6875,0.59375 c -4.77343,4.1289 -9.75,7.95312 -14.88672,11.61328 l -1.17968,0.84375 c -3.33203,2.34765 -6.75782,4.53906 -10.20703,6.71484 -0.75391,0.47656 -1.50782,0.95313 -2.26172,1.4336 -0.71485,0.45312 -1.4336,0.89843 -2.15625,1.33984 -1.51172,0.94141 -2.57422,1.67578 -3.62891,3.12891 l -0.61328,1.35156 -0.35547,0.77344 c -0.36719,0.83203 -0.72266,1.67187 -1.06641,2.51562 l -0.34375,0.81641 c -4.3164,10.37109 -6.85156,21.60156 -9.28125,32.53515 -1.03125,4.62891 -2.1875,9.21485 -3.42187,13.79297 3.58594,0.70313 7.18359,1.20313 10.8125,1.62891 l 0.90234,0.10937 c 5.39453,0.64063 10.80078,1.08203 16.21485,1.5 14.88672,1.15235 28.43359,3.39453 41.03515,11.83985 3.875,2.67968 3.875,2.67968 5.11719,3.86328 v 0.83984 h 0.83984 c 4.4336,4.58594 7.17188,9.91016 8.83985,15.9961 2.02344,8.15625 0.61719,16.39843 -1.62891,24.33593 -3.32422,11.28907 -9.09375,21.65235 -16.46875,30.8086 -0.5,0.64453 -1,1.29687 -1.5,1.94531 -1.41797,1.82031 -2.8789,3.60547 -4.34765,5.38672 -0.60938,0.74609 -1.20704,1.5039 -1.78907,2.27344 l -0.78125,0.91406 h -0.84375 l -0.30859,0.71875 c -0.63672,1.15625 -1.40625,2.01953 -2.29688,2.99219 l -1.01562,1.11328 c -1.10547,1.17578 -2.24219,2.32031 -3.40234,3.4375 -0.60157,0.57422 -0.60157,0.57422 -0.97266,1.42187 h -0.84375 v 0.83985 h -0.83984 l -0.42188,1.26562 h -0.84375 l -0.33984,0.76172 c -0.5,0.92187 -0.96094,1.51562 -1.76172,2.18359 h -0.84375 l -0.33985,0.76172 c -0.5,0.92188 -0.96484,1.51563 -1.76562,2.1836 h -0.83984 v 0.84375 c -0.63282,0.62109 -0.63282,0.62109 -1.5,1.33984 -1.14063,0.96875 -2.22657,1.94922 -3.26172,3.02734 -1.5586,1.58594 -3.26953,2.94922 -5,4.33985 -1.10157,0.90625 -2.16016,1.84765 -3.20703,2.8164 -2.375,2.16016 -4.88672,4.11719 -7.42579,6.07032 -0.54687,0.42578 -1.08984,0.85546 -1.6289,1.28515 -2.63281,2.07422 -5.67578,3.8711 -8.98438,4.57422 -2.75,0.33203 -5.63672,0.62109 -8.23437,-0.43359 -1.0625,-0.64453 -1.75391,-1.17969 -2.53516,-2.13282 l -0.61328,-0.71875 c -0.95703,-1.41406 -1.35937,-2.59765 -1.51562,-4.30468 -0.0117,-4.54297 0.41406,-8.6875 2.52343,-12.78516 1.36719,-2.33203 3.02735,-4.37891 4.76172,-6.44531 1.60547,-2.01563 3.15625,-4.07031 4.69531,-6.13672 2.14454,-2.875 4.32813,-5.71484 6.58985,-8.50391 2.29687,-2.83593 4.45312,-5.76172 6.55078,-8.75 l 0.64062,-0.91015 1.39454,-1.98828 c 0.80468,-1.14063 1.60937,-2.28125 2.41796,-3.42188 4.75782,-6.75 9.12891,-13.73828 13.11329,-20.97266 l 0.4375,-0.79296 c 1.20703,-2.41016 0.98046,-5.23047 0.85937,-7.86329 -0.18359,-1.95703 -0.79687,-3.78125 -1.76172,-5.48437 -0.96094,-1.23828 -1.7539,-1.71484 -3.18359,-2.39063 -2.125,-0.72656 -4.26953,-0.875 -6.5,-1.03125 l -1.17969,-0.0937 c -0.83984,-0.0625 -1.67578,-0.12109 -2.51172,-0.17968 -0.90234,-0.0625 -1.80469,-0.12891 -2.70312,-0.20703 -5.65625,-0.4375 -11.32422,-0.3711 -16.99219,-0.36329 -1.50781,0.004 -3.01953,0.004 -4.52734,0 -6.14063,-0.008 -12.26172,0.008 -18.38672,0.47657 -0.0117,1.77343 -0.0195,3.54687 -0.0234,5.32031 -0.004,0.60156 -0.004,1.20312 -0.008,1.80469 -0.008,0.87109 -0.008,1.74609 -0.0117,2.61718 l -0.004,1.58204 c 0.0156,1.32812 0.125,2.6289 0.25391,3.94531 0.23047,2.40625 0.28906,4.79297 0.30078,7.21094 l 0.008,1.35546 c 0.008,1.44532 0.008,2.89454 0.0117,4.33985 v 1.5039 c -0.0117,19.8711 -2.68359,38.65625 -9.36719,57.45313 l -0.33979,0.98042 c -1.41016,4.05078 -3.14453,7.84375 -5.11719,11.64453 -0.57812,1.12891 -1.14453,2.25781 -1.69922,3.39062 -0.5625,1.13282 -1.1289,2.26172 -1.69922,3.38672 -0.375,0.7461 -0.7539,1.4961 -1.1289,2.2461 -1.84766,3.57422 -3.91016,7.01562 -6.01172,10.44922 l -0.84766,1.38671 c -1.60937,2.60938 -3.32422,5.14454 -5.14453,7.60547 -0.875,1.1836 -1.70312,2.39063 -2.53125,3.60938 -3.125,4.53125 -6.42969,8.92969 -9.95312,13.15625 -1.22266,1.48437 -2.39453,3.0039 -3.56641,4.52734 l -0.6875,0.75781 h -0.83984 l -0.23828,0.86719 c -0.73047,1.4961 -1.69141,2.40235 -2.89454,3.53125 -0.69921,0.625 -0.69921,0.625 -1.07812,1.4961 h -0.83984 l -0.26563,0.67578 c -0.82031,1.42968 -1.93359,2.48437 -3.10156,3.63672 l -0.69922,0.70703 c -0.59375,0.58984 -1.20703,1.15234 -1.82813,1.71484 h -0.84375 l -0.41796,1.26172 c -0.90625,0.83203 -0.90625,0.83203 -2.07813,1.76172 l -1.26953,1.01172 -1.28516,1.01562 -1.13672,0.9375 c -2.67968,2.19531 -5.16406,4.01172 -8.54296,4.95313 -2.82813,0.26562 -5.74219,0.42578 -8.48438,-0.39453 -2.3125,-1.10938 -4.03906,-2.50391 -5.54687,-4.58985 -1.42188,-2.13281 -2.2461,-4.07031 -2.49219,-6.65234 -0.19922,-4.9375 1.52344,-9.16797 3.72265,-13.49219 2.74219,-5.22266 5.97657,-10.15625 9.26954,-15.04297 6.04687,-8.98437 11.83984,-18.33203 16.32812,-28.19922 0.69531,-1.53125 1.48047,-3.01172 2.35547,-4.44922 0.26953,-0.60546 0.52734,-1.21875 0.76562,-1.83984 0.46485,-1.21094 0.9375,-2.41016 1.45313,-3.60156 4.88281,-11.46094 7.74609,-23.89063 9.01562,-36.24219 0.0742,-0.70312 0.15235,-1.40625 0.23829,-2.10937 0.26953,-2.22657 0.38281,-4.41407 0.38671,-6.65235 l 0.004,-1.04297 c 0,-0.71875 0,-1.4414 0,-2.16406 0.004,-1.08203 0.0117,-2.16406 0.0195,-3.24609 0.0195,-5.82422 -0.40234,-11.51172 -1.83203,-17.1836 l -0.26562,-1.0664 c -0.95704,-3.55469 -2.51954,-6.67969 -4.3125,-9.87891 l -0.66016,-1.22266 c -0.87109,-1.61328 -1.75781,-3.21875 -2.66406,-4.8125 -6.60547,-11.76562 -8.02344,-24 -8.03907,-37.32031 0.082,-2.55859 0.40235,-5.05859 0.83985,-7.57812 l 0.16797,-0.9961 c 0.85937,-5.03515 2.15625,-9.89062 3.69922,-14.7539 0.39453,-1.2461 0.77343,-2.4961 1.15234,-3.7461 0.69141,-2.2539 1.43359,-4.48437 2.19922,-6.71484 1.59765,-4.66016 3.05078,-9.36719 4.35547,-14.11719 l 0.43359,-1.5664 c 1.62109,-5.90235 1.62109,-5.90235 1.28125,-11.94922 -1.55469,-5.82813 -1.55469,-5.82813 -4.60547,-10.92578 -1.45312,-1.17579 -2.76562,-2.00782 -4.63672,-2.33204 -1.15625,-0.12109 -2.30859,-0.21875 -3.46875,-0.30078 -0.78515,-0.0586 -1.57031,-0.12109 -2.35547,-0.1875 -0.34765,-0.0234 -0.6914,-0.0469 -1.04687,-0.0742 -0.96484,-0.10546 -0.96484,-0.10546 -1.78125,-0.3164 -14.20313,-3.41406 -32.19141,0 -45.90625,4 -2.85156,0.86328 -5.64063,1.86328 -8.41797,2.94531 l -1.27344,0.49609 c -8.83984,3.48438 -17.16015,7.75782 -24.82422,13.39454 l -1.10546,0.77343 c -4.92969,3.47657 -9.58985,7.39844 -14.01563,11.49219 -0.96484,0.86719 -1.9375,1.69141 -2.98047,2.46875 h -0.83984 v 0.83984 c -3.875,3.61329 -8.62499,7.53907 -13.656244,9.36719 -1.67578,0.35547 -3.17188,0.60938 -4.86719,0.31641 -2.10547,-0.75 -3.785158,-1.70703 -5.417968,-3.23828 -1.35156,-2.10547 -2.35937,-4.16797 -2.74219,-6.66016 -0.10156,-2.28125 0.33594,-4.1875 1.25391,-6.26953 1.11719,-2.05469 2.53125,-3.87891 3.960938,-5.72266 l 0.68359,-0.97656 0.57813,-0.70703 h 0.84375 v -0.83984 h 0.83984 l 0.30078,-0.71094 c 0.6836,-1.22266 1.52735,-2.06641 2.51953,-3.0586 l 0.60547,-0.60937 c 0.66016,-0.66406 1.32031,-1.32422 1.98047,-1.98047 l 1.37891,-1.38281 c 0.960934,-0.96094 1.925784,-1.92188 2.886724,-2.88281 1.23828,-1.23047 2.47265,-2.46485 3.70312,-3.70313 0.94922,-0.94922 1.89452,-1.89844 2.84374,-2.84766 0.45703,-0.45312 0.91406,-0.91015 1.36719,-1.36718 0.63281,-0.63282 1.26953,-1.26953 1.90625,-1.89844 l 1.09765,-1.09766 0.87891,-0.76953 h 0.84375 v -0.84375 c 0.52734,-0.55078 0.52734,-0.55078 1.3125,-1.21094 l 0.91797,-0.77734 1.13672,-0.95703 c 0.49219,-0.42578 0.98437,-0.84766 1.47656,-1.27344 l 1.57422,-1.35937 0.76953,-0.66016 c 2.67969,-2.30078 2.67969,-2.30078 3.75391,-3.02344 h 0.84375 v -0.83984 c 0.86328,-0.71484 0.86328,-0.71484 2.05078,-1.55078 l 1.30078,-0.92188 1.27734,-0.89453 0.94922,-0.68359 c 8.0625,-5.76953 16.44531,-10.75781 25.45703,-14.875 0.87891,-0.40625 1.75782,-0.8125 2.63282,-1.22656 7.10156,-3.28516 14.72265,-5.39063 22.3164,-7.20704 l 1.08985,-0.26562 c 19.58593,-4.69141 39.94531,-4.44531 59.88281,-2.49609 20.47656,1.95703 40.70703,0.0312 59.83203,-7.76172 0.29297,-0.1211 0.58594,-0.23828 0.88281,-0.35938 9.46485,-3.88281 18.23047,-9.26562 26.06641,-15.83984 0.80859,-0.6211 1.58984,-1.0625 2.51562,-1.48047 v -0.84375 c 0.66797,-0.58203 1.35157,-1.14453 2.05469,-1.68359 4.02734,-3.23047 7.37109,-6.89844 10.57422,-10.94141 l 0.83594,-1.02344 c 5.15234,-6.30859 9.58203,-13.13281 13.38281,-20.33594 0.34375,-0.63671 0.70703,-1.26562 1.08984,-1.8789 8.1211,-13.910162 12.91407,-30.238282 16.6836,-45.796877 2.67578,-10.960938 2.67578,-10.960938 6.6914,-15.210938 1.07813,-0.957031 2.02344,-1.550781 3.41016,-1.941406 1.22266,-0.152344 2.1875,-0.05469 3.35937,0.316406"
     fill-opacity="1"
     fill-rule="nonzero"
     id="path6" />
  <path
     fill="#6f32d7"
     d="m 284.71189,63.814893 c 3.70312,1.824218 7.40625,4.023437 10.52344,6.734375 v 0.84375 l 0.74609,0.32031 c 3.20312,1.77344 5.33203,5.59375 7.20703,8.64844 3.42578,5.82812 5.10547,12.05859 5.21875,18.78906 0.0469,7.742192 -0.95703,14.222662 -4.6875,21.066412 -1.37891,2.38672 -2.99219,4.57422 -4.69531,6.73828 l -0.82422,1.05859 c -3.9375,4.73828 -9.46094,8.41797 -15.19141,10.64063 -7.49609,2.67968 -15.66015,3.64843 -23.55859,2.30859 -1.71875,-0.35547 -3.375,-0.83984 -5.04688,-1.37891 l -1.4414,-0.44921 c -5.48047,-1.89454 -10.00781,-5.21485 -14.13281,-9.23438 l -0.9961,-0.93359 c -4.33203,-4.14844 -7.61328,-9.23047 -9.32031,-15.00782 -2.08984,-7.57421 -2.71875,-15.207032 -1.03516,-22.937492 2.19922,-8.22266 6.57032,-14.50391 12.48047,-20.44922 l 0.97656,-0.86328 h 0.84375 v -0.843754 c 4.48438,-4 11.02344,-6.5 16.79297,-7.863281 8.67969,-1.617188 18.05078,-0.765625 26.14063,2.8125"
     fill-opacity="1"
     fill-rule="nonzero"
     id="path8" />
  <path
     fill="#6f32d7"
     d="m 396.68064,91.174268 h 0.83984 c -0.23047,10.820312 -3.9375,21.800782 -7.41797,31.941402 l -0.45703,1.33985 c -1.01172,2.875 -2.1914,5.63281 -3.48828,8.39062 l -1.01172,2.23047 c -5.64453,12.23438 -13.15234,23.80469 -22.35937,33.67969 -0.81641,0.89062 -1.6211,1.79687 -2.40625,2.71484 -1.70313,1.94922 -3.51172,3.77735 -5.34766,5.60157 l -0.96875,0.97265 c -1.99609,1.99219 -4.06641,3.90625 -6.21094,5.73438 l -0.6875,0.59375 c -4.77343,4.1289 -9.75,7.95312 -14.88672,11.61328 l -1.17968,0.84375 c -3.33203,2.34765 -6.75782,4.53906 -10.20703,6.71484 -0.75391,0.47656 -1.50782,0.95313 -2.26172,1.4336 -0.71485,0.45312 -1.4336,0.89843 -2.15625,1.33984 -1.51172,0.94141 -2.57422,1.67578 -3.62891,3.12891 l -0.61328,1.35156 -0.35547,0.77344 c -0.36719,0.83203 -0.72266,1.67187 -1.06641,2.51562 l -0.34375,0.81641 c -4.32031,10.38281 -6.86328,21.625 -9.28125,32.57422 -0.74218,3.34765 -1.52343,6.68359 -2.40234,10.0039 l -0.25391,0.99219 c -0.24609,0.91016 -0.24609,0.91016 -0.76562,2.33594 l -1.26563,0.42187 0.35938,-1.58984 c 0.32812,-1.47656 0.64062,-2.95703 0.94141,-4.4375 7.49609,-36.60156 7.49609,-36.60156 14.5,-47.60938 1.60156,-1.67968 3.52734,-2.80078 5.48437,-4.03125 0.875,-0.5625 1.75,-1.125 2.625,-1.6875 l 1.32813,-0.85156 c 9.45312,-6.12109 18.78515,-12.76172 27.05078,-20.42969 l 0.75,-0.60547 h 0.83984 l 0.42188,-1.26171 c 0.64453,-0.63282 0.64453,-0.63282 1.47265,-1.31641 3.47656,-2.77344 3.47656,-2.77344 6.10547,-6.26172 h 0.83984 l 0.34375,-0.76172 c 0.50782,-0.93359 0.98047,-1.44922 1.76172,-2.15625 2.02735,-1.96875 3.67578,-4.22265 5.36328,-6.47656 0.50391,-0.67188 1.01172,-1.33984 1.52344,-2.00391 2.17578,-2.85937 4.22656,-5.77734 6.16406,-8.80468 l 0.84375,-1.32032 c 11.05469,-17.6875 18.11329,-37.89843 21.46485,-58.453122"
     fill-opacity="1"
     fill-rule="nonzero"
     id="path10" />
  <path
     fill="#6f32d7"
     d="m 277.13376,367.72896 h 0.84375 c -0.21484,3.34375 -0.7539,6.52343 -1.52734,9.78515 l -0.33594,1.4375 c -1.77734,7.38281 -4.05859,14.48828 -7,21.48828 -0.40625,0.9961 -0.80469,1.9961 -1.19531,2.9961 -6.26563,15.69922 -15.82813,30.51172 -26.14063,43.84765 l -0.67578,0.8711 c -1.72656,2.24609 -3.46875,4.48047 -5.21875,6.70703 l -0.62109,0.78906 c -0.52734,0.66797 -1.05469,1.33594 -1.58984,1.99609 l -0.875,1.09766 -0.70313,0.74609 h -0.83984 l -0.23828,0.86719 c -0.73047,1.4961 -1.69141,2.40235 -2.89454,3.53125 -0.69921,0.625 -0.69921,0.625 -1.07812,1.4961 h -0.83984 l -0.26563,0.67578 c -0.82031,1.42968 -1.93359,2.48437 -3.10156,3.63672 l -0.69922,0.70703 c -0.59375,0.58984 -1.20703,1.15234 -1.82813,1.71484 h -0.84375 l -0.41796,1.26172 c -0.90625,0.83203 -0.90625,0.83203 -2.07813,1.76172 l -1.26953,1.01172 -1.28516,1.01562 -1.13672,0.9375 c -2.67968,2.19531 -5.16406,4.01172 -8.54296,4.95313 -2.82813,0.26562 -5.74219,0.42578 -8.48438,-0.39453 -2.3125,-1.10938 -4.03906,-2.50391 -5.54687,-4.58985 -1.42188,-2.13281 -2.2461,-4.07031 -2.49219,-6.65234 -0.19922,-4.9336 1.51953,-9.15625 3.71484,-13.48047 1.22266,-2.32813 2.55469,-4.59375 3.91797,-6.84375 l 0.60547,-1.00781 0.57422,-0.92578 0.50781,-0.82422 c 0.46875,-0.63672 0.46875,-0.63672 1.30859,-1.0586 -0.53125,1.41407 -1.18359,2.76953 -1.95312,4.06641 l -0.65234,1.10937 -0.6836,1.16407 c -1.82422,3.15625 -3.47265,6.21875 -4.70703,9.65625 l -0.40234,0.94922 c -1.07032,2.71484 -1.14063,5.42187 -0.85938,8.30859 0.29688,1.13281 0.6875,1.90234 1.26172,2.94922 l 0.55078,1.3125 c 0.88281,1.5039 1.82031,2.30859 3.23828,3.3164 2.69922,1.32813 4.99219,1.88282 7.9961,1.6836 4.36328,-0.8125 7.71875,-3.21875 11.05078,-6.02735 1.23828,-1.0625 2.46094,-2.14843 3.68359,-3.23437 l 1.14844,-1.00391 c 3.82422,-3.3789 7.37891,-6.92187 10.5625,-10.91797 0.89062,-1.09765 1.82422,-2.13671 2.78516,-3.17578 1.98828,-2.19531 3.78515,-4.51172 5.5625,-6.8789 0.58203,-0.77344 1.17187,-1.54688 1.76171,-2.31641 4.8711,-6.39062 9.38282,-13.02734 13.53516,-19.90234 l 0.50781,-0.83594 c 11.41016,-18.91797 18.75,-38.35156 23.90625,-59.77734"
     fill-opacity="1"
     fill-rule="nonzero"
     id="path12" />
  <path
     fill="#6f32d7"
     d="m 343.2197,267.12349 c 6.69531,0.0312 13.22266,3.05859 18.94531,6.3164 3.33594,1.96485 6.875,4.05469 9.67969,6.73438 v 0.83984 h 0.83984 c 4.4336,4.58594 7.17188,9.91016 8.83985,15.9961 2.02344,8.15625 0.61719,16.39843 -1.62891,24.33593 -3.32422,11.28907 -9.09375,21.65235 -16.46875,30.8086 -0.5,0.64453 -1,1.29687 -1.5,1.94531 -1.41797,1.82031 -2.8789,3.60547 -4.34765,5.38672 -0.60938,0.74609 -1.20704,1.5039 -1.78907,2.27344 l -0.78125,0.91406 h -0.84375 l -0.3164,0.73828 c -0.60547,1.09375 -1.25391,1.82031 -2.20703,2.63281 h -1.26563 c 0.5625,-1.26562 1.17188,-2.08984 2.18359,-3.02734 1.42969,-1.38281 2.6211,-2.86719 3.82032,-4.45313 0.67578,-0.86718 1.38281,-1.67968 2.125,-2.49218 2.13281,-2.41016 3.93359,-5.06641 5.76172,-7.70704 l 0.53125,-0.76171 c 2.93359,-4.21485 5.5039,-8.58594 7.88671,-13.12891 l 0.45313,-0.85156 c 2.04297,-3.91407 3.55859,-7.96485 4.96875,-12.14453 l 0.48437,-1.44141 c 1.52344,-4.66016 2.25,-8.96875 2.22657,-13.87109 l -0.008,-1.39844 c -0.0898,-5.83594 -1.17968,-10.95703 -3.91406,-16.17578 -3.75781,-6.23828 -9.22265,-10.75 -15.48047,-14.31641 -5.73437,-3.16406 -11.85547,-5.18359 -18.19531,-6.73047 z m -169.63281,-60.19141 0.42187,0.83984 -0.75781,0.1875 c -15.51562,3.83594 -30.48437,9.64454 -43.44141,19.17579 l -1.10546,0.77343 c -4.92969,3.47657 -9.58985,7.39844 -14.01563,11.49219 -0.96484,0.86719 -1.9375,1.69141 -2.98047,2.46875 h -0.83984 v 0.83984 c -3.875,3.61329 -8.62499,7.53907 -13.656244,9.36719 -1.67578,0.35547 -3.17188,0.60938 -4.86719,0.31641 -2.10547,-0.75 -3.785158,-1.70703 -5.417968,-3.23828 -1.35547,-2.11328 -2.41015,-4.19532 -2.71094,-6.71875 -0.0469,-2.03125 0.17969,-3.72657 0.97657,-5.61719 0.23437,0.62891 0.23437,0.62891 0.41797,1.68359 l -0.26172,1.55078 c -0.25782,1.77735 0.0977,3.08594 0.73437,4.7461 0.73828,1.71094 1.46094,2.79687 2.81641,4.09375 1.730468,1.2539 3.085938,1.70703 5.183588,2 2.99219,-0.33985 5.50781,-1.50391 8.003914,-3.17578 3.63672,-2.7461 7.04296,-5.78516 10.46483,-8.79297 10.85547,-9.52344 21.85938,-17.73828 34.9375,-23.9961 l 1.16406,-0.57031 c 7.26563,-3.44531 16.78125,-7.58203 24.9336,-7.42578 M 274.18845,60.86958 c 7.75,1.058594 13.99609,4.460938 20.24219,8.980468 l 0.80469,0.69922 v 0.84375 l 0.74609,0.32031 c 3.20312,1.77344 5.33203,5.59375 7.20703,8.64844 3.42578,5.82812 5.10547,12.05859 5.21875,18.78906 0.0469,7.742192 -0.95703,14.222662 -4.6875,21.066412 -1.37891,2.38672 -2.99219,4.57422 -4.69531,6.73828 l -0.82422,1.05859 c -4.04688,4.875 -9.70703,8.48828 -15.57031,10.79297 -0.84375,0.28516 -1.69532,0.53516 -2.54688,0.77734 l -0.42187,-1.26562 1.26562,-0.60156 c 6.98828,-3.38282 12.85547,-7.07032 17.67578,-13.28907 l 0.78125,-0.98437 c 3.41407,-4.55859 6.21875,-10.39453 7.09766,-16.04297 0.86719,-7.835942 0.30078,-15.285152 -2.51172,-22.644532 -2.71875,-6.02344 -6.58594,-11.23047 -11.89062,-15.20703 -0.76563,-0.51953 -1.53516,-1.027344 -2.31641,-1.523438 l -1.21875,-0.785156 c -4.64844,-2.847656 -9.45313,-4.457031 -14.77734,-5.53125 z m 0,0"
     fill-opacity="1"
     fill-rule="nonzero"
     id="path14" />
  <path
     fill="#6f32d7"
     d="m 349.11423,366.88521 0.84375,0.42187 c -0.60547,1.33984 -1.35156,2.36719 -2.3164,3.47266 l -0.77735,0.89843 -0.69531,0.67969 h -0.84375 v 0.83985 h -0.83984 l -0.42188,1.26562 h -0.84375 l -0.33984,0.76172 c -0.5,0.92187 -0.96094,1.51562 -1.76172,2.18359 h -0.84375 l -0.33985,0.76172 c -0.5,0.92188 -0.96484,1.51563 -1.76562,2.1836 h -0.83984 v 0.84375 c -0.63282,0.62109 -0.63282,0.62109 -1.5,1.33984 -1.14063,0.96875 -2.22657,1.94922 -3.26172,3.02734 -1.5586,1.58594 -3.26953,2.94922 -5,4.33985 -1.10157,0.90625 -2.16016,1.84765 -3.20703,2.8164 -2.375,2.16016 -4.88672,4.11719 -7.42579,6.07032 -0.54687,0.42578 -1.08984,0.85546 -1.6289,1.28515 -2.63281,2.07422 -5.67578,3.8711 -8.98438,4.57422 -2.75,0.33203 -5.63672,0.62109 -8.23437,-0.43359 -1.0625,-0.64453 -1.75391,-1.17969 -2.53516,-2.13282 l -0.61328,-0.71875 c -0.95703,-1.41406 -1.35937,-2.59765 -1.51562,-4.30468 -0.0117,-4.54297 0.41406,-8.6875 2.52343,-12.78516 1.35938,-2.32812 3.01172,-4.39844 4.76172,-6.44531 v 1.26172 c -0.58594,0.9414 -0.58594,0.9414 -1.36719,2 -2.38281,3.33203 -3.8789,6.08203 -4.52734,10.20703 -0.25,2.60937 -0.39844,5.32812 0.32031,7.86719 0.54297,1.16406 1.17188,2.0664 2.13672,2.91406 1.71875,1.10156 3.52735,1.32031 5.54297,1.42578 3.63672,-0.32031 6.66406,-1.42188 9.73828,-3.36328 2.04297,-1.4336 3.94531,-3.00781 5.83594,-4.63281 0.67578,-0.57813 1.35547,-1.15235 2.03516,-1.72657 0.46875,-0.39453 0.93359,-0.78906 1.40234,-1.1875 1.41406,-1.19922 2.84766,-2.375 4.29687,-3.53125 3.59375,-2.92578 6.97266,-6.13672 10.23438,-9.42578 1.01562,-1.02344 2.05078,-1.98828 3.15625,-2.91406 1.25781,-1.07813 2.25781,-2.21875 3.28906,-3.52734 h 0.83985 l 0.27343,-0.6875 c 0.77344,-1.34766 1.83203,-2.34375 2.9375,-3.41407 l 0.65625,-0.64843 c 0.53516,-0.51954 1.07032,-1.04297 1.60547,-1.5625"
     fill-opacity="1"
     fill-rule="nonzero"
     id="path16" />
  <path
     fill="#6f32d7"
     d="m 381.94626,44.029737 0.42188,0.84375 c -0.26953,0.753906 -0.57422,1.5 -0.89453,2.234374 -0.98047,2.453126 -1.65235,4.875 -2.23438,7.445313 -3.76562,16.386714 -9.19531,32.894534 -17.49609,47.566406 l -0.42188,-0.83984 c 0.27735,-0.76172 0.27735,-0.76172 0.7461,-1.691412 l 0.51953,-1.05469 0.57422,-1.14843 c 6.3125,-13 10.75781,-26.69922 14.15625,-40.726565 2.19531,-9 2.19531,-9 4.20703,-12.207032 z m 0,0"
     fill-opacity="1"
     fill-rule="nonzero"
     id="path18" />
  <path
     fill="#6f32d7"
     d="m 231.67283,81.072708 0.42187,0.84375 c -0.35156,0.79297 -0.73047,1.57031 -1.12891,2.33984 -3.08984,6.59766 -3.55078,13.16406 -3.07812,20.390622 0.64844,7.01954 2.99219,13.40235 7.06641,19.16407 1.4414,1.90234 2.99218,3.60547 4.71875,5.25 l -0.42188,1.26172 c -4.60937,-4.35938 -8.42578,-9.19141 -10.42969,-15.3086 -2.33203,-7.89844 -3.09765,-15.875002 -1.35156,-23.980472 0.95313,-3.53906 2.25391,-6.85546 4.20313,-9.96093"
     fill-opacity="1"
     fill-rule="nonzero"
     id="path20" />
  <path
     fill="#6f32d7"
     d="m 214.83689,296.17036 0.84375,0.41797 c 0.19922,0.94141 0.35547,1.89063 0.5,2.84375 1.27344,7.41016 4.11719,13.94531 7.73828,20.48828 5.25781,9.51172 5.25781,9.51172 6.49219,13.71094 l 0.28515,0.92187 c 0.51953,1.85547 0.63672,3.48829 0.5586,5.39454 -0.73828,-1.28907 -1.11719,-2.60547 -1.4961,-4.03516 -1.30468,-4.89844 -3.3789,-9.26953 -6.05468,-13.56641 -4.46485,-7.23828 -8.65235,-16.51953 -8.91016,-25.13672 z m 13.46875,-69.03515 0.84375,0.42187 c -1.46094,8.79297 -4.57422,17.20703 -7.42969,25.625 -1.05078,3.10547 -2.0625,6.21875 -2.99219,9.36719 l -0.2539,0.86719 c -0.76172,2.61328 -1.38282,5.2539 -1.95313,7.91796 -0.44531,-0.71484 -0.44531,-0.71484 -0.83984,-1.68359 0.10156,-0.97266 0.10156,-0.97266 0.39453,-2.04687 l 0.32031,-1.19922 0.36328,-1.27735 0.36328,-1.33203 c 0.35157,-1.27734 0.71485,-2.55078 1.08204,-3.82812 l 0.26171,-0.90625 c 0.84766,-2.88672 1.8086,-5.73047 2.77735,-8.57422 0.35547,-1.04688 0.71094,-2.09766 1.0664,-3.14453 l 0.26954,-0.80469 c 2.15625,-6.39844 3.96093,-12.88672 5.72656,-19.40234 m -32.41016,-61.875 c -1.36719,0.76562 -2.66015,1.10156 -4.1914,1.41796 l -1.48829,0.3086 -1.58203,0.32422 c -1.08203,0.23047 -2.16406,0.45703 -3.24609,0.6875 l -1.57031,0.33203 -1.39063,0.29687 -1.00781,0.21485 c -8.35547,1.80468 -16.80469,4.73437 -24.51563,8.41406 -1.20703,0.53906 -2.21875,0.87109 -3.52343,1.05078 l 0.42187,-0.83984 c 0.69531,-0.39844 0.69531,-0.39844 1.60156,-0.8086 l 1.02344,-0.46484 1.11328,-0.48828 1.14844,-0.51172 c 11.15234,-4.88672 24.93359,-10.14453 37.20703,-9.93359 m -70.29687,30.30468 0.84375,0.42188 c -1.89844,1.72656 -3.8125,3.40234 -5.83985,4.97265 -2.02343,1.59375 -3.80859,3.36329 -5.59375,5.21094 -0.88672,0.875 -1.80468,1.71875 -2.75,2.52735 -1.76172,1.53906 -3.42578,3.15234 -5.07422,4.80859 l -0.90233,0.89844 c -0.62109,0.62109 -1.24219,1.24218 -1.86328,1.86718 -0.94141,0.94532 -1.88672,1.88672 -2.83203,2.82813 l -1.824224,1.82422 -0.83984,0.84375 c -1.61719,1.625 -3.17188,3.30469 -4.66407,5.04687 -0.93359,1.06641 -1.92578,2.0586 -2.9375,3.0586 l -1.10547,1.08984 -0.8164,0.80469 v -1.26563 c 0.57812,-0.91797 0.57812,-0.91797 1.26172,-1.68359 h 0.84375 v -0.83984 h 0.83984 l 0.30078,-0.71094 c 0.6836,-1.22266 1.52735,-2.06641 2.51953,-3.0586 l 0.60547,-0.60937 c 0.66016,-0.66406 1.32031,-1.32422 1.98047,-1.98047 l 1.37891,-1.38281 c 0.960934,-0.96094 1.925784,-1.92188 2.886724,-2.88281 1.23828,-1.23047 2.47265,-2.46485 3.70312,-3.70313 0.94922,-0.94922 1.89452,-1.89844 2.84374,-2.84766 0.45703,-0.45312 0.91406,-0.91015 1.36719,-1.36718 0.63281,-0.63282 1.26953,-1.26953 1.90625,-1.89844 l 1.09765,-1.09766 0.87891,-0.76953 h 0.84375 v -0.84375 c 0.52734,-0.55078 0.52734,-0.55078 1.3125,-1.21094 l 0.91797,-0.77734 1.13672,-0.95703 c 0.49219,-0.42578 0.98437,-0.84766 1.47656,-1.27344 l 1.57422,-1.35937 0.76953,-0.66016 c 1.22266,-1.05078 2.44531,-2.07812 3.75391,-3.02344 m 153.64062,131.33203 h 0.84375 v 22.3086 l -1.26562,-1.26172 c -0.15235,-0.89453 -0.15235,-0.89453 -0.14844,-1.9375 l -0.004,-1.19141 0.0156,-1.27734 0.004,-1.31641 c 0,-0.91797 0.008,-1.83593 0.0156,-2.75781 0.0117,-1.40625 0.0195,-2.8125 0.0195,-4.22266 l 0.0117,-2.67578 0.008,-1.27734 0.0117,-1.1875 0.008,-1.04688 c 0.0586,-0.89453 0.0586,-0.89453 0.48047,-2.15625 m -49.25,51.77344 h 0.42188 c -0.21485,8.30469 -3.36328,16.34766 -6.3125,23.9961 l -0.44532,1.15234 c -0.39843,1.01953 -0.80468,2.03906 -1.21484,3.05469 l -0.35937,0.90234 c -0.28516,0.69141 -0.60547,1.37109 -0.92969,2.04297 l -0.83985,0.42187 c 0.14063,-1.72656 0.63672,-3.0625 1.37891,-4.60156 1.1875,-2.57812 2.125,-5.20312 3.01563,-7.89453 l 0.49218,-1.48047 c 1.46485,-4.49609 2.62891,-9.03906 3.70703,-13.64062 0.32422,-1.32813 0.69922,-2.64063 1.08594,-3.95313 M 339.85251,132.0063 v 1.26172 c -2.22265,2.67187 -4.96093,4.90625 -7.67187,7.0664 -0.76563,0.60938 -1.51953,1.23047 -2.26563,1.86329 -3.11718,2.6289 -6.41015,4.88281 -9.84375,7.0664 l -0.8789,0.5625 c -0.86328,0.54688 -1.72657,1.08594 -2.59375,1.6211 l -0.8086,0.50781 c -0.65625,0.40234 -1.34375,0.7539 -2.03515,1.09765 l -1.26172,-0.42187 1.3125,-0.74219 c 5.77344,-3.30859 11.27344,-6.96484 16.375,-11.24219 0.80859,-0.625 1.58984,-1.0664 2.51562,-1.48437 v -0.84375 c 0.70313,-0.61719 1.42188,-1.21484 2.16016,-1.78906 1.78516,-1.42578 3.42578,-2.86719 4.99609,-4.52344 m -28.62109,21.04687 1.26172,0.42188 c -20.10547,10.42578 -20.10547,10.42578 -29.46485,10.10156 1.12891,-0.7539 1.66407,-1 2.9336,-1.28125 l 1.0039,-0.23437 1.08594,-0.2461 c 7.88281,-1.90234 15.45703,-4.82031 22.75781,-8.33984 z m 21.46484,156.58594 c 1.38672,0.39453 2.13282,0.86719 3.1836,1.86719 1.73047,2.27734 2.50781,4.79687 2.93359,7.59766 0.17188,2.85937 -0.11328,4.94921 -1.32422,7.51953 -0.71094,1.3789 -1.46484,2.73437 -2.26562,4.0625 l -0.69141,1.17187 c -0.45703,0.74219 -0.92969,1.47266 -1.41406,2.19531 l -0.42188,-0.84375 c 0.33203,-0.76953 0.33203,-0.76953 0.86719,-1.69531 l 0.57422,-1.00781 0.61328,-1.05859 c 0.39453,-0.6875 0.78906,-1.375 1.17969,-2.0625 l 0.53515,-0.92579 c 1.1875,-2.21875 1.02344,-4.61718 0.98047,-7.0664 -0.10156,-2.29297 -0.66797,-4.38281 -1.80078,-6.38672 -0.82812,-0.91797 -0.82812,-0.91797 -1.68359,-1.68359 -0.42969,-0.41016 -0.85156,-0.83204 -1.26563,-1.26172 z m -183.52343,-129.64844 0.83984,0.42188 -0.78125,0.45703 c -1.19531,0.69531 -2.39063,1.39453 -3.58594,2.09375 l -1.23047,0.71875 c -2.71875,1.59766 -5.30859,3.3125 -7.87109,5.14844 -0.68359,0.47656 -1.36719,0.94922 -2.05078,1.42187 -1.19141,0.82813 -2.36328,1.67578 -3.51563,2.55469 l -0.69531,0.52734 c -0.65234,0.5 -1.30859,1.00391 -1.96094,1.50782 l -1.03906,0.72265 h -0.83984 v -0.83984 c 0.86328,-0.71484 0.86328,-0.71484 2.05078,-1.55078 l 1.30078,-0.92188 1.27734,-0.89453 0.94922,-0.68359 c 11.80078,-8.44531 11.80078,-8.44531 17.15235,-10.6836 M 395.41501,45.295361 h 0.84375 c 1.02344,2.765626 1.65235,5.503907 2.10547,8.417969 l 0.14453,0.910157 c 0.29688,2.085937 0.32032,4.140624 0.27735,6.246093 h -0.84375 c -0.71875,-3.691406 -1.26953,-7.40625 -1.81641,-11.125 -0.21875,-1.484375 -0.45703,-2.96875 -0.71094,-4.449219 m -4.66797,-5.457031 c 1.67579,0.773438 3.01954,1.984375 4.25,3.351563 0.51563,0.9375 0.51563,0.9375 0.83985,1.683594 -1.35547,-0.59375 -2.1836,-1.308594 -3.20703,-2.367188 -0.98438,-0.878906 -1.6211,-1.367188 -2.91016,-1.671875 -1.10547,-0.03906 -2.05859,0.01953 -3.14062,0.25 -1.42579,0.703125 -1.42579,0.703125 -2.52735,1.683594 l -1,0.738281 -0.68359,0.523438 c 0.46484,-1.253907 1.01172,-1.84375 2,-2.785157 2.05078,-1.601562 3.79297,-2.167969 6.3789,-1.40625"
     fill-opacity="1"
     fill-rule="nonzero"
     id="path22" />
  <path
     fill="#6f32d7"
     d="m 266.19236,60.447705 v 0.421875 l -1.46485,0.214844 c -5.51953,0.847656 -10.53125,2.167969 -15.64062,4.476563 l -0.9961,0.359374 -0.83984,-0.421874 c 6.01172,-3.199219 12.04297,-5.320313 18.94141,-5.050782"
     fill-opacity="1"
     fill-rule="nonzero"
     id="path24" />
  <path
     fill="#6f32d7"
     d="m 243.04001,68.02583 0.83985,0.417969 c -0.54297,0.582029 -1.10157,1.140629 -1.6836,1.683589 h -0.83984 v 0.84375 c -0.60547,0.5625 -0.60547,0.5625 -1.44531,1.23829 -2.94532,2.49609 -5.35938,5.59375 -7.39453,8.86328 l -0.42188,-1.26172 c 1.71094,-2.94531 4.11328,-5.48828 6.5,-7.89453 l 0.66016,-0.66797 c 0.54297,-0.53125 1.10937,-1.03906 1.67968,-1.53906 h 0.84375 v -0.843754 z m -21.46875,138.90625 c 1.16016,0.37891 1.94922,0.67578 2.78907,1.57422 2.17187,3.36719 4.08984,7 4.36718,11.05469 h -0.83984 l -0.48047,-1.55469 -0.65234,-2.05078 c -0.10157,-0.33594 -0.20703,-0.67188 -0.3125,-1.01953 -1.00391,-3.11328 -2.5,-5.30078 -4.8711,-7.58203 z m 0,0"
     fill-opacity="1"
     fill-rule="nonzero"
     id="path26" />
</svg>
