<?xml version="1.0" encoding="UTF-8" standalone="no"?>
<!-- Created with Inkscape (http://www.inkscape.org/) -->

<svg
   width="210mm"
   height="50mm"
   viewBox="0 0 210 50"
   version="1.1"
   id="svg460"
   inkscape:version="1.2.2 (732a01da63, 2022-12-09)"
   sodipodi:docname="logonazwa.svg"
   xmlns:inkscape="http://www.inkscape.org/namespaces/inkscape"
   xmlns:sodipodi="http://sodipodi.sourceforge.net/DTD/sodipodi-0.dtd"
   xmlns="http://www.w3.org/2000/svg"
   xmlns:svg="http://www.w3.org/2000/svg">
  <sodipodi:namedview
     id="namedview462"
     pagecolor="#ffffff"
     bordercolor="#000000"
     borderopacity="0.25"
     inkscape:showpageshadow="2"
     inkscape:pageopacity="0.0"
     inkscape:pagecheckerboard="0"
     inkscape:deskcolor="#d1d1d1"
     inkscape:document-units="mm"
     showgrid="false"
     inkscape:zoom="0.71624579"
     inkscape:cx="398.60618"
     inkscape:cy="451.6606"
     inkscape:window-width="1920"
     inkscape:window-height="991"
     inkscape:window-x="-9"
     inkscape:window-y="-9"
     inkscape:window-maximized="1"
     inkscape:current-layer="layer1" />
  <defs
     id="defs457" />
  <g
     inkscape:label="Warstwa 1"
     inkscape:groupmode="layer"
     id="layer1">
    <g
       fill="#6a3cd4"
       fill-opacity="0.4"
       id="g34"
       transform="matrix(0.35277777,0,0,0.35277777,-30.449655,-186.44128)">
      <g
         transform="translate(106.71116,637.84304)"
         id="g32">
        <g
           id="g30">
          <path
             d="m 54.4375,-64.90625 v 12.078125 H 36.109375 V 0 H 24.015625 V -52.828125 H 5.6875 V -64.90625 Z m 0,0"
             id="path28" />
        </g>
      </g>
    </g>
    <g
       fill="#6a3cd4"
       fill-opacity="0.4"
       id="g42"
       transform="matrix(0.35277777,0,0,0.35277777,-30.449655,-186.44128)">
      <g
         transform="translate(166.83632,637.84304)"
         id="g40">
        <g
           id="g38">
          <path
             d="M 43.984375,0 39.1875,-16.140625 H 23.203125 L 18.421875,0 H 5.6875 L 24.828125,-64.90625 H 37.5625 V -64.75 L 56.640625,0 Z M 26.78125,-28.234375 H 35.625 l -4.390625,-15.09375 z m 0,0"
             id="path36" />
        </g>
      </g>
    </g>
    <g
       fill="#6a3cd4"
       fill-opacity="0.4"
       id="g50"
       transform="matrix(0.35277777,0,0,0.35277777,-30.449655,-186.44128)">
      <g
         transform="translate(229.15228,637.84304)"
         id="g48">
        <g
           id="g46">
          <path
             d="M 46.8125,-83.90625 34.734375,-67.671875 H 25.15625 l 6.078125,-16.234375 z m -2.59375,19 H 56.390625 V 0 H 41.21875 l -23.375,-40.65625 V 0 H 5.6875 v -64.90625 h 13.296875 l 25.234375,43.8125 z m 0,0"
             id="path44" />
        </g>
      </g>
    </g>
    <g
       fill="#6a3cd4"
       fill-opacity="0.4"
       id="g58"
       transform="matrix(0.35277777,0,0,0.35277777,-30.449655,-186.44128)">
      <g
         transform="translate(291.22481,637.84304)"
         id="g56">
        <g
           id="g54">
          <path
             d="M 53.234375,-18.09375 62.390625,-9 c -2.96875,2.96875 -6.484375,5.335938 -10.546875,7.09375 -4.054688,1.761719 -8.382812,2.640625 -12.984375,2.640625 -4.59375,0 -8.898437,-0.863281 -12.90625,-2.59375 -4,-1.738281 -7.515625,-4.117187 -10.546875,-7.140625 -3.023438,-3.03125 -5.398438,-6.546875 -7.125,-10.546875 -1.730469,-4.007813 -2.59375,-8.3125 -2.59375,-12.90625 0,-4.601563 0.863281,-8.90625 2.59375,-12.90625 1.726562,-4 4.101562,-7.515625 7.125,-10.546875 3.03125,-3.03125 6.546875,-5.410156 10.546875,-7.140625 4.007813,-1.726563 8.3125,-2.59375 12.90625,-2.59375 4.601563,0 8.929687,0.867187 12.984375,2.59375 4.0625,1.730469 7.578125,4.109375 10.546875,7.140625 l -9.15625,9.09375 c -1.679687,-2 -3.75,-3.566406 -6.21875,-4.703125 -2.460937,-1.144531 -5.179687,-1.71875 -8.15625,-1.71875 -3.78125,0 -7.148437,0.9375 -10.09375,2.8125 -2.949219,1.867187 -5.261719,4.367187 -6.9375,7.5 -1.679687,3.136719 -2.515625,6.625 -2.515625,10.46875 0,3.78125 0.835938,7.257813 2.515625,10.421875 1.675781,3.167969 3.988281,5.683594 6.9375,7.546875 2.945313,1.867187 6.3125,2.796875 10.09375,2.796875 2.976563,0 5.695313,-0.566406 8.15625,-1.703125 2.46875,-1.132813 4.539063,-2.703125 6.21875,-4.703125 z m 0,0"
             id="path52" />
        </g>
      </g>
    </g>
    <g
       fill="#6a3cd4"
       fill-opacity="0.4"
       id="g66"
       transform="matrix(0.35277777,0,0,0.35277777,-30.449655,-186.44128)">
      <g
         transform="translate(359.30175,637.84304)"
         id="g64">
        <g
           id="g62">
          <path
             d="m 36.03125,-65.71875 c 4.59375,0 8.890625,0.867188 12.890625,2.59375 4.007813,1.730469 7.523437,4.109375 10.546875,7.140625 3.03125,3.03125 5.410156,6.546875 7.140625,10.546875 1.738281,4 2.609375,8.304688 2.609375,12.90625 0,4.59375 -0.871094,8.898438 -2.609375,12.90625 -1.730469,4 -4.109375,7.515625 -7.140625,10.546875 -3.023438,3.023437 -6.539062,5.402344 -10.546875,7.140625 -4,1.730469 -8.296875,2.59375 -12.890625,2.59375 -4.605469,0 -8.90625,-0.863281 -12.90625,-2.59375 -4,-1.738281 -7.515625,-4.117188 -10.546875,-7.140625 C 9.546875,-12.109375 7.164062,-15.625 5.4375,-19.625 3.707031,-23.632812 2.84375,-27.9375 2.84375,-32.53125 c 0,-4.601562 0.863281,-8.90625 2.59375,-12.90625 1.726562,-4 4.109375,-7.515625 7.140625,-10.546875 3.03125,-3.03125 6.546875,-5.410156 10.546875,-7.140625 4,-1.726562 8.300781,-2.59375 12.90625,-2.59375 z m 0,12.40625 c -3.792969,0 -7.164062,0.9375 -10.109375,2.8125 -2.949219,1.867188 -5.261719,4.367188 -6.9375,7.5 -1.679687,3.136719 -2.515625,6.625 -2.515625,10.46875 0,3.78125 0.835938,7.257812 2.515625,10.421875 1.675781,3.167969 3.988281,5.683594 6.9375,7.546875 2.945313,1.867188 6.316406,2.796875 10.109375,2.796875 3.832031,0 7.222656,-0.929687 10.171875,-2.796875 2.945313,-1.863281 5.257813,-4.378906 6.9375,-7.546875 1.675781,-3.164063 2.515625,-6.640625 2.515625,-10.421875 0,-3.84375 -0.839844,-7.332031 -2.515625,-10.46875 -1.679687,-3.132812 -3.992187,-5.632812 -6.9375,-7.5 -2.949219,-1.875 -6.339844,-2.8125 -10.171875,-2.8125 z m 0,0"
             id="path60" />
        </g>
      </g>
    </g>
    <g
       fill="#6a3cd4"
       fill-opacity="0.4"
       id="g74"
       transform="matrix(0.35277777,0,0,0.35277777,-30.449655,-186.44128)">
      <g
         transform="translate(431.35458,637.84304)"
         id="g72">
        <g
           id="g70">
          <path
             d="M 70.1875,-65 H 83.5 L 70.4375,0 H 57.125 L 44.625,-42.359375 32.125,0 H 18.828125 L 5.6875,-65 H 18.984375 L 26.6875,-26.859375 37.890625,-65 v -0.07813 H 51.28125 l 11.28125,38.21875 z m 0,0"
             id="path68" />
        </g>
      </g>
    </g>
    <g
       fill="#6a3cd4"
       fill-opacity="0.4"
       id="g82"
       transform="matrix(0.35277777,0,0,0.35277777,-30.449655,-186.44128)">
      <g
         transform="translate(520.52808,637.84304)"
         id="g80">
        <g
           id="g78">
          <path
             d="M 44.21875,-64.90625 H 56.390625 V 0 H 41.21875 l -23.375,-40.65625 V 0 H 5.6875 v -64.90625 h 13.296875 l 25.234375,43.8125 z m 0,0"
             id="path76" />
        </g>
      </g>
    </g>
    <g
       fill="#6a3cd4"
       fill-opacity="0.4"
       id="g90"
       transform="matrix(0.35277777,0,0,0.35277777,-30.449655,-186.44128)">
      <g
         transform="translate(582.6006,637.84304)"
         id="g88">
        <g
           id="g86">
          <path
             d="M 17.84375,-0.25 V -64.90625 H 5.6875 V -0.25 Z m 0,0"
             id="path84" />
        </g>
      </g>
    </g>
    <g
       fill="#6a3cd4"
       fill-opacity="0.4"
       id="g98"
       transform="matrix(0.35277777,0,0,0.35277777,-30.449655,-186.44128)">
      <g
         transform="translate(606.13139,637.84304)"
         id="g96">
        <g
           id="g94">
          <path
             d="M 43.984375,0 39.1875,-16.140625 H 23.203125 L 18.421875,0 H 5.6875 L 24.828125,-64.90625 H 37.5625 V -64.75 L 56.640625,0 Z M 26.78125,-28.234375 H 35.625 l -4.390625,-15.09375 z m 0,0"
             id="path92" />
        </g>
      </g>
    </g>
    <g
       fill="#6f32d7"
       fill-opacity="1"
       id="g106"
       transform="matrix(0.35277777,0,0,0.35277777,-30.449655,-186.44128)">
      <g
         transform="translate(103.12487,634.25677)"
         id="g104">
        <g
           id="g102">
          <path
             d="m 54.4375,-64.90625 v 12.078125 H 36.109375 V 0 H 24.015625 V -52.828125 H 5.6875 V -64.90625 Z m 0,0"
             id="path100" />
        </g>
      </g>
    </g>
    <g
       fill="#6f32d7"
       fill-opacity="1"
       id="g114"
       transform="matrix(0.35277777,0,0,0.35277777,-30.449655,-186.44128)">
      <g
         transform="translate(163.25003,634.25677)"
         id="g112">
        <g
           id="g110">
          <path
             d="M 43.984375,0 39.1875,-16.140625 H 23.203125 L 18.421875,0 H 5.6875 L 24.828125,-64.90625 H 37.5625 V -64.75 L 56.640625,0 Z M 26.78125,-28.234375 H 35.625 l -4.390625,-15.09375 z m 0,0"
             id="path108" />
        </g>
      </g>
    </g>
    <g
       fill="#6f32d7"
       fill-opacity="1"
       id="g122"
       transform="matrix(0.35277777,0,0,0.35277777,-30.449655,-186.44128)">
      <g
         transform="translate(225.56599,634.25677)"
         id="g120">
        <g
           id="g118">
          <path
             d="M 46.8125,-83.90625 34.734375,-67.671875 H 25.15625 l 6.078125,-16.234375 z m -2.59375,19 H 56.390625 V 0 H 41.21875 l -23.375,-40.65625 V 0 H 5.6875 v -64.90625 h 13.296875 l 25.234375,43.8125 z m 0,0"
             id="path116" />
        </g>
      </g>
    </g>
    <g
       fill="#6f32d7"
       fill-opacity="1"
       id="g130"
       transform="matrix(0.35277777,0,0,0.35277777,-30.449655,-186.44128)">
      <g
         transform="translate(287.63853,634.25677)"
         id="g128">
        <g
           id="g126">
          <path
             d="M 53.234375,-18.09375 62.390625,-9 c -2.96875,2.96875 -6.484375,5.335938 -10.546875,7.09375 -4.054688,1.761719 -8.382812,2.640625 -12.984375,2.640625 -4.59375,0 -8.898437,-0.863281 -12.90625,-2.59375 -4,-1.738281 -7.515625,-4.117187 -10.546875,-7.140625 -3.023438,-3.03125 -5.398438,-6.546875 -7.125,-10.546875 -1.730469,-4.007813 -2.59375,-8.3125 -2.59375,-12.90625 0,-4.601563 0.863281,-8.90625 2.59375,-12.90625 1.726562,-4 4.101562,-7.515625 7.125,-10.546875 3.03125,-3.03125 6.546875,-5.410156 10.546875,-7.140625 4.007813,-1.726563 8.3125,-2.59375 12.90625,-2.59375 4.601563,0 8.929687,0.867187 12.984375,2.59375 4.0625,1.730469 7.578125,4.109375 10.546875,7.140625 l -9.15625,9.09375 c -1.679687,-2 -3.75,-3.566406 -6.21875,-4.703125 -2.460937,-1.144531 -5.179687,-1.71875 -8.15625,-1.71875 -3.78125,0 -7.148437,0.9375 -10.09375,2.8125 -2.949219,1.867187 -5.261719,4.367187 -6.9375,7.5 -1.679687,3.136719 -2.515625,6.625 -2.515625,10.46875 0,3.78125 0.835938,7.257813 2.515625,10.421875 1.675781,3.167969 3.988281,5.683594 6.9375,7.546875 2.945313,1.867187 6.3125,2.796875 10.09375,2.796875 2.976563,0 5.695313,-0.566406 8.15625,-1.703125 2.46875,-1.132813 4.539063,-2.703125 6.21875,-4.703125 z m 0,0"
             id="path124" />
        </g>
      </g>
    </g>
    <g
       fill="#6f32d7"
       fill-opacity="1"
       id="g138"
       transform="matrix(0.35277777,0,0,0.35277777,-30.449655,-186.44128)">
      <g
         transform="translate(355.71546,634.25677)"
         id="g136">
        <g
           id="g134">
          <path
             d="m 36.03125,-65.71875 c 4.59375,0 8.890625,0.867188 12.890625,2.59375 4.007813,1.730469 7.523437,4.109375 10.546875,7.140625 3.03125,3.03125 5.410156,6.546875 7.140625,10.546875 1.738281,4 2.609375,8.304688 2.609375,12.90625 0,4.59375 -0.871094,8.898438 -2.609375,12.90625 -1.730469,4 -4.109375,7.515625 -7.140625,10.546875 -3.023438,3.023437 -6.539062,5.402344 -10.546875,7.140625 -4,1.730469 -8.296875,2.59375 -12.890625,2.59375 -4.605469,0 -8.90625,-0.863281 -12.90625,-2.59375 -4,-1.738281 -7.515625,-4.117188 -10.546875,-7.140625 C 9.546875,-12.109375 7.164062,-15.625 5.4375,-19.625 3.707031,-23.632812 2.84375,-27.9375 2.84375,-32.53125 c 0,-4.601562 0.863281,-8.90625 2.59375,-12.90625 1.726562,-4 4.109375,-7.515625 7.140625,-10.546875 3.03125,-3.03125 6.546875,-5.410156 10.546875,-7.140625 4,-1.726562 8.300781,-2.59375 12.90625,-2.59375 z m 0,12.40625 c -3.792969,0 -7.164062,0.9375 -10.109375,2.8125 -2.949219,1.867188 -5.261719,4.367188 -6.9375,7.5 -1.679687,3.136719 -2.515625,6.625 -2.515625,10.46875 0,3.78125 0.835938,7.257812 2.515625,10.421875 1.675781,3.167969 3.988281,5.683594 6.9375,7.546875 2.945313,1.867188 6.316406,2.796875 10.109375,2.796875 3.832031,0 7.222656,-0.929687 10.171875,-2.796875 2.945313,-1.863281 5.257813,-4.378906 6.9375,-7.546875 1.675781,-3.164063 2.515625,-6.640625 2.515625,-10.421875 0,-3.84375 -0.839844,-7.332031 -2.515625,-10.46875 -1.679687,-3.132812 -3.992187,-5.632812 -6.9375,-7.5 -2.949219,-1.875 -6.339844,-2.8125 -10.171875,-2.8125 z m 0,0"
             id="path132" />
        </g>
      </g>
    </g>
    <g
       fill="#6f32d7"
       fill-opacity="1"
       id="g146"
       transform="matrix(0.35277777,0,0,0.35277777,-30.449655,-186.44128)">
      <g
         transform="translate(427.76829,634.25677)"
         id="g144">
        <g
           id="g142">
          <path
             d="M 70.1875,-65 H 83.5 L 70.4375,0 H 57.125 L 44.625,-42.359375 32.125,0 H 18.828125 L 5.6875,-65 H 18.984375 L 26.6875,-26.859375 37.890625,-65 v -0.07813 H 51.28125 l 11.28125,38.21875 z m 0,0"
             id="path140" />
        </g>
      </g>
    </g>
    <g
       fill="#6f32d7"
       fill-opacity="1"
       id="g154"
       transform="matrix(0.35277777,0,0,0.35277777,-30.449655,-186.44128)">
      <g
         transform="translate(516.94179,634.25677)"
         id="g152">
        <g
           id="g150">
          <path
             d="M 44.21875,-64.90625 H 56.390625 V 0 H 41.21875 l -23.375,-40.65625 V 0 H 5.6875 v -64.90625 h 13.296875 l 25.234375,43.8125 z m 0,0"
             id="path148" />
        </g>
      </g>
    </g>
    <g
       fill="#6f32d7"
       fill-opacity="1"
       id="g162"
       transform="matrix(0.35277777,0,0,0.35277777,-30.449655,-186.44128)">
      <g
         transform="translate(579.01431,634.25677)"
         id="g160">
        <g
           id="g158">
          <path
             d="M 17.84375,-0.25 V -64.90625 H 5.6875 V -0.25 Z m 0,0"
             id="path156" />
        </g>
      </g>
    </g>
    <g
       fill="#6f32d7"
       fill-opacity="1"
       id="g170"
       transform="matrix(0.35277777,0,0,0.35277777,-30.449655,-186.44128)">
      <g
         transform="translate(602.54511,634.25677)"
         id="g168">
        <g
           id="g166">
          <path
             d="M 43.984375,0 39.1875,-16.140625 H 23.203125 L 18.421875,0 H 5.6875 L 24.828125,-64.90625 H 37.5625 V -64.75 L 56.640625,0 Z M 26.78125,-28.234375 H 35.625 l -4.390625,-15.09375 z m 0,0"
             id="path164" />
        </g>
      </g>
    </g>
  </g>
</svg>
