<svg xmlns="http://www.w3.org/2000/svg" xmlns:xlink="http://www.w3.org/1999/xlink" width="1024" zoomAndPan="magnify" viewBox="0 0 768 767.999994" height="1024" preserveAspectRatio="xMidYMid meet" version="1.0"><defs><g/></defs><path fill="#6f32d7" d="M 494.796875 68.191406 C 496.832031 69.195312 498.414062 70.769531 499.777344 72.558594 C 505.207031 84.566406 503.851562 100.855469 502.648438 113.621094 C 502.453125 115.460938 502.214844 117.292969 501.960938 119.125 L 501.804688 120.273438 C 500.417969 130.285156 497.933594 139.878906 494.753906 149.457031 L 494.429688 150.433594 C 493.199219 154.132812 491.863281 157.699219 490.175781 161.214844 C 489.835938 161.960938 489.5 162.703125 489.164062 163.445312 C 483.519531 175.679688 476.011719 187.25 466.804688 197.125 C 465.988281 198.015625 465.183594 198.921875 464.398438 199.839844 C 462.695312 201.789062 460.886719 203.617188 459.050781 205.441406 L 458.082031 206.414062 C 456.085938 208.40625 454.015625 210.320312 451.871094 212.148438 L 451.183594 212.742188 C 446.410156 216.871094 441.433594 220.695312 436.296875 224.355469 L 435.117188 225.199219 C 431.785156 227.546875 428.359375 229.738281 424.910156 231.914062 C 424.15625 232.390625 423.402344 232.867188 422.648438 233.347656 C 421.933594 233.800781 421.214844 234.246094 420.492188 234.6875 C 418.980469 235.628906 417.917969 236.363281 416.863281 237.816406 L 416.25 239.167969 L 415.894531 239.941406 C 415.527344 240.773438 415.171875 241.613281 414.828125 242.457031 L 414.484375 243.273438 C 410.167969 253.644531 407.632812 264.875 405.203125 275.808594 C 404.171875 280.4375 403.015625 285.023438 401.78125 289.601562 C 405.367188 290.304688 408.964844 290.804688 412.59375 291.230469 L 413.496094 291.339844 C 418.890625 291.980469 424.296875 292.421875 429.710938 292.839844 C 444.597656 293.992188 458.144531 296.234375 470.746094 304.679688 C 474.621094 307.359375 474.621094 307.359375 475.863281 308.542969 L 475.863281 309.382812 L 476.703125 309.382812 C 481.136719 313.96875 483.875 319.292969 485.542969 325.378906 C 487.566406 333.535156 486.160156 341.777344 483.914062 349.714844 C 480.589844 361.003906 474.820312 371.367188 467.445312 380.523438 C 466.945312 381.167969 466.445312 381.820312 465.945312 382.46875 C 464.527344 384.289062 463.066406 386.074219 461.597656 387.855469 C 460.988281 388.601562 460.390625 389.359375 459.808594 390.128906 L 459.027344 391.042969 L 458.183594 391.042969 L 457.875 391.761719 C 457.238281 392.917969 456.46875 393.78125 455.578125 394.753906 L 454.5625 395.867188 C 453.457031 397.042969 452.320312 398.1875 451.160156 399.304688 C 450.558594 399.878906 450.558594 399.878906 450.1875 400.726562 L 449.34375 400.726562 L 449.34375 401.566406 L 448.503906 401.566406 L 448.082031 402.832031 L 447.238281 402.832031 L 446.898438 403.59375 C 446.398438 404.515625 445.9375 405.109375 445.136719 405.777344 L 444.292969 405.777344 L 443.953125 406.539062 C 443.453125 407.460938 442.988281 408.054688 442.1875 408.722656 L 441.347656 408.722656 L 441.347656 409.566406 C 440.714844 410.1875 440.714844 410.1875 439.847656 410.90625 C 438.707031 411.875 437.621094 412.855469 436.585938 413.933594 C 435.027344 415.519531 433.316406 416.882812 431.585938 418.273438 C 430.484375 419.179688 429.425781 420.121094 428.378906 421.089844 C 426.003906 423.25 423.492188 425.207031 420.953125 427.160156 C 420.40625 427.585938 419.863281 428.015625 419.324219 428.445312 C 416.691406 430.519531 413.648438 432.316406 410.339844 433.019531 C 407.589844 433.351562 404.703125 433.640625 402.105469 432.585938 C 401.042969 431.941406 400.351562 431.40625 399.570312 430.453125 L 398.957031 429.734375 C 398 428.320312 397.597656 427.136719 397.441406 425.429688 C 397.429688 420.886719 397.855469 416.742188 399.964844 412.644531 C 401.332031 410.3125 402.992188 408.265625 404.726562 406.199219 C 406.332031 404.183594 407.882812 402.128906 409.421875 400.0625 C 411.566406 397.1875 413.75 394.347656 416.011719 391.558594 C 418.308594 388.722656 420.464844 385.796875 422.5625 382.808594 L 423.203125 381.898438 L 424.597656 379.910156 C 425.402344 378.769531 426.207031 377.628906 427.015625 376.488281 C 431.773438 369.738281 436.144531 362.75 440.128906 355.515625 L 440.566406 354.722656 C 441.773438 352.3125 441.546875 349.492188 441.425781 346.859375 C 441.242188 344.902344 440.628906 343.078125 439.664062 341.375 C 438.703125 340.136719 437.910156 339.660156 436.480469 338.984375 C 434.355469 338.257812 432.210938 338.109375 429.980469 337.953125 L 428.800781 337.859375 C 427.960938 337.796875 427.125 337.738281 426.289062 337.679688 C 425.386719 337.617188 424.484375 337.550781 423.585938 337.472656 C 417.929688 337.035156 412.261719 337.101562 406.59375 337.109375 C 405.085938 337.113281 403.574219 337.113281 402.066406 337.109375 C 395.925781 337.101562 389.804688 337.117188 383.679688 337.585938 C 383.667969 339.359375 383.660156 341.132812 383.65625 342.90625 C 383.652344 343.507812 383.652344 344.109375 383.648438 344.710938 C 383.640625 345.582031 383.640625 346.457031 383.636719 347.328125 L 383.632812 348.910156 C 383.648438 350.238281 383.757812 351.539062 383.886719 352.855469 C 384.117188 355.261719 384.175781 357.648438 384.1875 360.066406 L 384.195312 361.421875 C 384.203125 362.867188 384.203125 364.316406 384.207031 365.761719 L 384.207031 367.265625 C 384.195312 387.136719 381.523438 405.921875 374.839844 424.71875 L 374.5 425.699219 C 373.089844 429.75 371.355469 433.542969 369.382812 437.34375 C 368.804688 438.472656 368.238281 439.601562 367.683594 440.734375 C 367.121094 441.867188 366.554688 442.996094 365.984375 444.121094 C 365.609375 444.867188 365.230469 445.617188 364.855469 446.367188 C 363.007812 449.941406 360.945312 453.382812 358.84375 456.816406 L 357.996094 458.203125 C 356.386719 460.8125 354.671875 463.347656 352.851562 465.808594 C 351.976562 466.992188 351.148438 468.199219 350.320312 469.417969 C 347.195312 473.949219 343.890625 478.347656 340.367188 482.574219 C 339.144531 484.058594 337.972656 485.578125 336.800781 487.101562 L 336.113281 487.859375 L 335.273438 487.859375 L 335.035156 488.726562 C 334.304688 490.222656 333.34375 491.128906 332.140625 492.257812 C 331.441406 492.882812 331.441406 492.882812 331.0625 493.753906 L 330.222656 493.753906 L 329.957031 494.429688 C 329.136719 495.859375 328.023438 496.914062 326.855469 498.066406 L 326.15625 498.773438 C 325.5625 499.363281 324.949219 499.925781 324.328125 500.488281 L 323.484375 500.488281 L 323.066406 501.75 C 322.160156 502.582031 322.160156 502.582031 320.988281 503.511719 L 319.71875 504.523438 L 318.433594 505.539062 L 317.296875 506.476562 C 314.617188 508.671875 312.132812 510.488281 308.753906 511.429688 C 305.925781 511.695312 303.011719 511.855469 300.269531 511.035156 C 297.957031 509.925781 296.230469 508.53125 294.722656 506.445312 C 293.300781 504.3125 292.476562 502.375 292.230469 499.792969 C 292.03125 494.855469 293.753906 490.625 295.953125 486.300781 C 298.695312 481.078125 301.929688 476.144531 305.222656 471.257812 C 311.269531 462.273438 317.0625 452.925781 321.550781 443.058594 C 322.246094 441.527344 323.03125 440.046875 323.90625 438.609375 C 324.175781 438.003906 324.433594 437.390625 324.671875 436.769531 C 325.136719 435.558594 325.609375 434.359375 326.125 433.167969 C 331.007812 421.707031 333.871094 409.277344 335.140625 396.925781 C 335.214844 396.222656 335.292969 395.519531 335.378906 394.816406 C 335.648438 392.589844 335.761719 390.402344 335.765625 388.164062 L 335.769531 387.121094 C 335.769531 386.402344 335.769531 385.679688 335.769531 384.957031 C 335.773438 383.875 335.78125 382.792969 335.789062 381.710938 C 335.808594 375.886719 335.386719 370.199219 333.957031 364.527344 L 333.691406 363.460938 C 332.734375 359.90625 331.171875 356.78125 329.378906 353.582031 L 328.71875 352.359375 C 327.847656 350.746094 326.960938 349.140625 326.054688 347.546875 C 319.449219 335.78125 318.03125 323.546875 318.015625 310.226562 C 318.097656 307.667969 318.417969 305.167969 318.855469 302.648438 L 319.023438 301.652344 C 319.882812 296.617188 321.179688 291.761719 322.722656 286.898438 C 323.117188 285.652344 323.496094 284.402344 323.875 283.152344 C 324.566406 280.898438 325.308594 278.667969 326.074219 276.4375 C 327.671875 271.777344 329.125 267.070312 330.429688 262.320312 L 330.863281 260.753906 C 332.484375 254.851562 332.484375 254.851562 332.144531 248.804688 C 330.589844 242.976562 330.589844 242.976562 327.539062 237.878906 C 326.085938 236.703125 324.773438 235.871094 322.902344 235.546875 C 321.746094 235.425781 320.59375 235.328125 319.433594 235.246094 C 318.648438 235.1875 317.863281 235.125 317.078125 235.058594 C 316.730469 235.035156 316.386719 235.011719 316.03125 234.984375 C 315.066406 234.878906 315.066406 234.878906 314.25 234.667969 C 300.046875 231.253906 282.058594 234.667969 268.34375 238.667969 C 265.492188 239.53125 262.703125 240.53125 259.925781 241.613281 L 258.652344 242.109375 C 249.8125 245.59375 241.492188 249.867188 233.828125 255.503906 L 232.722656 256.277344 C 227.792969 259.753906 223.132812 263.675781 218.707031 267.769531 C 217.742188 268.636719 216.769531 269.460938 215.726562 270.238281 L 214.886719 270.238281 L 214.886719 271.078125 C 211.011719 274.691406 206.261719 278.617188 201.230469 280.445312 C 199.554688 280.800781 198.058594 281.054688 196.363281 280.761719 C 194.257812 280.011719 192.578125 279.054688 190.945312 277.523438 C 189.59375 275.417969 188.585938 273.355469 188.203125 270.863281 C 188.101562 268.582031 188.539062 266.675781 189.457031 264.59375 C 190.574219 262.539062 191.988281 260.714844 193.417969 258.871094 L 194.101562 257.894531 L 194.679688 257.1875 L 195.523438 257.1875 L 195.523438 256.347656 L 196.363281 256.347656 L 196.664062 255.636719 C 197.347656 254.414062 198.191406 253.570312 199.183594 252.578125 L 199.789062 251.96875 C 200.449219 251.304688 201.109375 250.644531 201.769531 249.988281 L 203.148438 248.605469 C 204.109375 247.644531 205.074219 246.683594 206.035156 245.722656 C 207.273438 244.492188 208.507812 243.257812 209.738281 242.019531 C 210.6875 241.070312 211.632812 240.121094 212.582031 239.171875 C 213.039062 238.71875 213.496094 238.261719 213.949219 237.804688 C 214.582031 237.171875 215.21875 236.535156 215.855469 235.90625 L 216.953125 234.808594 L 217.832031 234.039062 L 218.675781 234.039062 L 218.675781 233.195312 C 219.203125 232.644531 219.203125 232.644531 219.988281 231.984375 L 220.90625 231.207031 L 222.042969 230.25 C 222.535156 229.824219 223.027344 229.402344 223.519531 228.976562 L 225.09375 227.617188 L 225.863281 226.957031 C 228.542969 224.65625 228.542969 224.65625 229.617188 223.933594 L 230.460938 223.933594 L 230.460938 223.09375 C 231.324219 222.378906 231.324219 222.378906 232.511719 221.542969 L 233.8125 220.621094 L 235.089844 219.726562 L 236.039062 219.042969 C 244.101562 213.273438 252.484375 208.285156 261.496094 204.167969 C 262.375 203.761719 263.253906 203.355469 264.128906 202.941406 C 271.230469 199.65625 278.851562 197.550781 286.445312 195.734375 L 287.535156 195.46875 C 307.121094 190.777344 327.480469 191.023438 347.417969 192.972656 C 367.894531 194.929688 388.125 193.003906 407.25 185.210938 C 407.542969 185.089844 407.835938 184.972656 408.132812 184.851562 C 417.597656 180.96875 426.363281 175.585938 434.199219 169.011719 C 435.007812 168.390625 435.789062 167.949219 436.714844 167.53125 L 436.714844 166.6875 C 437.382812 166.105469 438.066406 165.542969 438.769531 165.003906 C 442.796875 161.773438 446.140625 158.105469 449.34375 154.0625 L 450.179688 153.039062 C 455.332031 146.730469 459.761719 139.90625 463.5625 132.703125 C 463.90625 132.066406 464.269531 131.4375 464.652344 130.824219 C 472.773438 116.914062 477.566406 100.585938 481.335938 85.027344 C 484.011719 74.066406 484.011719 74.066406 488.027344 69.816406 C 489.105469 68.859375 490.050781 68.265625 491.4375 67.875 C 492.660156 67.722656 493.625 67.820312 494.796875 68.191406 " fill-opacity="1" fill-rule="nonzero"/><path fill="#6f32d7" d="M 388.730469 92.183594 C 392.433594 94.007812 396.136719 96.207031 399.253906 98.917969 L 399.253906 99.761719 L 400 100.082031 C 403.203125 101.855469 405.332031 105.675781 407.207031 108.730469 C 410.632812 114.558594 412.3125 120.789062 412.425781 127.519531 C 412.472656 135.261719 411.46875 141.742188 407.738281 148.585938 C 406.359375 150.972656 404.746094 153.160156 403.042969 155.324219 L 402.21875 156.382812 C 398.28125 161.121094 392.757812 164.800781 387.027344 167.023438 C 379.53125 169.703125 371.367188 170.671875 363.46875 169.332031 C 361.75 168.976562 360.09375 168.492188 358.421875 167.953125 L 356.980469 167.503906 C 351.5 165.609375 346.972656 162.289062 342.847656 158.269531 L 341.851562 157.335938 C 337.519531 153.1875 334.238281 148.105469 332.53125 142.328125 C 330.441406 134.753906 329.8125 127.121094 331.496094 119.390625 C 333.695312 111.167969 338.066406 104.886719 343.976562 98.941406 L 344.953125 98.078125 L 345.796875 98.078125 L 345.796875 97.234375 C 350.28125 93.234375 356.820312 90.734375 362.589844 89.371094 C 371.269531 87.753906 380.640625 88.605469 388.730469 92.183594 " fill-opacity="1" fill-rule="nonzero"/><path fill="#6f32d7" d="M 500.699219 119.542969 L 501.539062 119.542969 C 501.308594 130.363281 497.601562 141.34375 494.121094 151.484375 L 493.664062 152.824219 C 492.652344 155.699219 491.472656 158.457031 490.175781 161.214844 L 489.164062 163.445312 C 483.519531 175.679688 476.011719 187.25 466.804688 197.125 C 465.988281 198.015625 465.183594 198.921875 464.398438 199.839844 C 462.695312 201.789062 460.886719 203.617188 459.050781 205.441406 L 458.082031 206.414062 C 456.085938 208.40625 454.015625 210.320312 451.871094 212.148438 L 451.183594 212.742188 C 446.410156 216.871094 441.433594 220.695312 436.296875 224.355469 L 435.117188 225.199219 C 431.785156 227.546875 428.359375 229.738281 424.910156 231.914062 C 424.15625 232.390625 423.402344 232.867188 422.648438 233.347656 C 421.933594 233.800781 421.214844 234.246094 420.492188 234.6875 C 418.980469 235.628906 417.917969 236.363281 416.863281 237.816406 L 416.25 239.167969 L 415.894531 239.941406 C 415.527344 240.773438 415.171875 241.613281 414.828125 242.457031 L 414.484375 243.273438 C 410.164062 253.65625 407.621094 264.898438 405.203125 275.847656 C 404.460938 279.195312 403.679688 282.53125 402.800781 285.851562 L 402.546875 286.84375 C 402.300781 287.753906 402.300781 287.753906 401.78125 289.179688 L 400.515625 289.601562 L 400.875 288.011719 C 401.203125 286.535156 401.515625 285.054688 401.816406 283.574219 C 409.3125 246.972656 409.3125 246.972656 416.316406 235.964844 C 417.917969 234.285156 419.84375 233.164062 421.800781 231.933594 C 422.675781 231.371094 423.550781 230.808594 424.425781 230.246094 L 425.753906 229.394531 C 435.207031 223.273438 444.539062 216.632812 452.804688 208.964844 L 453.554688 208.359375 L 454.394531 208.359375 L 454.816406 207.097656 C 455.460938 206.464844 455.460938 206.464844 456.289062 205.78125 C 459.765625 203.007812 459.765625 203.007812 462.394531 199.519531 L 463.234375 199.519531 L 463.578125 198.757812 C 464.085938 197.824219 464.558594 197.308594 465.339844 196.601562 C 467.367188 194.632812 469.015625 192.378906 470.703125 190.125 C 471.207031 189.453125 471.714844 188.785156 472.226562 188.121094 C 474.402344 185.261719 476.453125 182.34375 478.390625 179.316406 L 479.234375 177.996094 C 490.289062 160.308594 497.347656 140.097656 500.699219 119.542969 " fill-opacity="1" fill-rule="nonzero"/><path fill="#6f32d7" d="M 381.152344 396.097656 L 381.996094 396.097656 C 381.78125 399.441406 381.242188 402.621094 380.46875 405.882812 L 380.132812 407.320312 C 378.355469 414.703125 376.074219 421.808594 373.132812 428.808594 C 372.726562 429.804688 372.328125 430.804688 371.9375 431.804688 C 365.671875 447.503906 356.109375 462.316406 345.796875 475.652344 L 345.121094 476.523438 C 343.394531 478.769531 341.652344 481.003906 339.902344 483.230469 L 339.28125 484.019531 C 338.753906 484.6875 338.226562 485.355469 337.691406 486.015625 L 336.816406 487.113281 L 336.113281 487.859375 L 335.273438 487.859375 L 335.035156 488.726562 C 334.304688 490.222656 333.34375 491.128906 332.140625 492.257812 C 331.441406 492.882812 331.441406 492.882812 331.0625 493.753906 L 330.222656 493.753906 L 329.957031 494.429688 C 329.136719 495.859375 328.023438 496.914062 326.855469 498.066406 L 326.15625 498.773438 C 325.5625 499.363281 324.949219 499.925781 324.328125 500.488281 L 323.484375 500.488281 L 323.066406 501.75 C 322.160156 502.582031 322.160156 502.582031 320.988281 503.511719 L 319.71875 504.523438 L 318.433594 505.539062 L 317.296875 506.476562 C 314.617188 508.671875 312.132812 510.488281 308.753906 511.429688 C 305.925781 511.695312 303.011719 511.855469 300.269531 511.035156 C 297.957031 509.925781 296.230469 508.53125 294.722656 506.445312 C 293.300781 504.3125 292.476562 502.375 292.230469 499.792969 C 292.03125 494.859375 293.75 490.636719 295.945312 486.3125 C 297.167969 483.984375 298.5 481.71875 299.863281 479.46875 L 300.46875 478.460938 L 301.042969 477.535156 L 301.550781 476.710938 C 302.019531 476.074219 302.019531 476.074219 302.859375 475.652344 C 302.328125 477.066406 301.675781 478.421875 300.90625 479.71875 L 300.253906 480.828125 L 299.570312 481.992188 C 297.746094 485.148438 296.097656 488.210938 294.863281 491.648438 L 294.460938 492.597656 C 293.390625 495.3125 293.320312 498.019531 293.601562 500.90625 C 293.898438 502.039062 294.289062 502.808594 294.863281 503.855469 L 295.414062 505.167969 C 296.296875 506.671875 297.234375 507.476562 298.652344 508.484375 C 301.351562 509.8125 303.644531 510.367188 306.648438 510.167969 C 311.011719 509.355469 314.367188 506.949219 317.699219 504.140625 C 318.9375 503.078125 320.160156 501.992188 321.382812 500.90625 L 322.53125 499.902344 C 326.355469 496.523438 329.910156 492.980469 333.09375 488.984375 C 333.984375 487.886719 334.917969 486.847656 335.878906 485.808594 C 337.867188 483.613281 339.664062 481.296875 341.441406 478.929688 C 342.023438 478.15625 342.613281 477.382812 343.203125 476.613281 C 348.074219 470.222656 352.585938 463.585938 356.738281 456.710938 L 357.246094 455.875 C 368.65625 436.957031 375.996094 417.523438 381.152344 396.097656 " fill-opacity="1" fill-rule="nonzero"/><path fill="#6f32d7" d="M 447.238281 295.492188 C 453.933594 295.523438 460.460938 298.550781 466.183594 301.808594 C 469.519531 303.773438 473.058594 305.863281 475.863281 308.542969 L 475.863281 309.382812 L 476.703125 309.382812 C 481.136719 313.96875 483.875 319.292969 485.542969 325.378906 C 487.566406 333.535156 486.160156 341.777344 483.914062 349.714844 C 480.589844 361.003906 474.820312 371.367188 467.445312 380.523438 C 466.945312 381.167969 466.445312 381.820312 465.945312 382.46875 C 464.527344 384.289062 463.066406 386.074219 461.597656 387.855469 C 460.988281 388.601562 460.390625 389.359375 459.808594 390.128906 L 459.027344 391.042969 L 458.183594 391.042969 L 457.867188 391.78125 C 457.261719 392.875 456.613281 393.601562 455.660156 394.414062 L 454.394531 394.414062 C 454.957031 393.148438 455.566406 392.324219 456.578125 391.386719 C 458.007812 390.003906 459.199219 388.519531 460.398438 386.933594 C 461.074219 386.066406 461.78125 385.253906 462.523438 384.441406 C 464.65625 382.03125 466.457031 379.375 468.285156 376.734375 L 468.816406 375.972656 C 471.75 371.757812 474.320312 367.386719 476.703125 362.84375 L 477.15625 361.992188 C 479.199219 358.078125 480.714844 354.027344 482.125 349.847656 L 482.609375 348.40625 C 484.132812 343.746094 484.859375 339.4375 484.835938 334.535156 L 484.828125 333.136719 C 484.738281 327.300781 483.648438 322.179688 480.914062 316.960938 C 477.15625 310.722656 471.691406 306.210938 465.433594 302.644531 C 459.699219 299.480469 453.578125 297.460938 447.238281 295.914062 Z M 277.605469 235.300781 L 278.027344 236.140625 L 277.269531 236.328125 C 261.753906 240.164062 246.785156 245.972656 233.828125 255.503906 L 232.722656 256.277344 C 227.792969 259.753906 223.132812 263.675781 218.707031 267.769531 C 217.742188 268.636719 216.769531 269.460938 215.726562 270.238281 L 214.886719 270.238281 L 214.886719 271.078125 C 211.011719 274.691406 206.261719 278.617188 201.230469 280.445312 C 199.554688 280.800781 198.058594 281.054688 196.363281 280.761719 C 194.257812 280.011719 192.578125 279.054688 190.945312 277.523438 C 189.589844 275.410156 188.535156 273.328125 188.234375 270.804688 C 188.1875 268.773438 188.414062 267.078125 189.210938 265.1875 C 189.445312 265.816406 189.445312 265.816406 189.628906 266.871094 L 189.367188 268.421875 C 189.109375 270.199219 189.464844 271.507812 190.101562 273.167969 C 190.839844 274.878906 191.5625 275.964844 192.917969 277.261719 C 194.648438 278.515625 196.003906 278.96875 198.101562 279.261719 C 201.09375 278.921875 203.609375 277.757812 206.105469 276.085938 C 209.742188 273.339844 213.148438 270.300781 216.570312 267.292969 C 227.425781 257.769531 238.429688 249.554688 251.507812 243.296875 L 252.671875 242.726562 C 259.9375 239.28125 269.453125 235.144531 277.605469 235.300781 M 378.207031 89.238281 C 385.957031 90.296875 392.203125 93.699219 398.449219 98.21875 L 399.253906 98.917969 L 399.253906 99.761719 L 400 100.082031 C 403.203125 101.855469 405.332031 105.675781 407.207031 108.730469 C 410.632812 114.558594 412.3125 120.789062 412.425781 127.519531 C 412.472656 135.261719 411.46875 141.742188 407.738281 148.585938 C 406.359375 150.972656 404.746094 153.160156 403.042969 155.324219 L 402.21875 156.382812 C 398.171875 161.257812 392.511719 164.871094 386.648438 167.175781 C 385.804688 167.460938 384.953125 167.710938 384.101562 167.953125 L 383.679688 166.6875 L 384.945312 166.085938 C 391.933594 162.703125 397.800781 159.015625 402.621094 152.796875 L 403.402344 151.8125 C 406.816406 147.253906 409.621094 141.417969 410.5 135.769531 C 411.367188 127.933594 410.800781 120.484375 407.988281 113.125 C 405.269531 107.101562 401.402344 101.894531 396.097656 97.917969 C 395.332031 97.398438 394.5625 96.890625 393.78125 96.394531 L 392.5625 95.609375 C 387.914062 92.761719 383.109375 91.152344 377.785156 90.078125 Z M 378.207031 89.238281 " fill-opacity="1" fill-rule="nonzero"/><path fill="#6f32d7" d="M 453.132812 395.253906 L 453.976562 395.675781 C 453.371094 397.015625 452.625 398.042969 451.660156 399.148438 L 450.882812 400.046875 L 450.1875 400.726562 L 449.34375 400.726562 L 449.34375 401.566406 L 448.503906 401.566406 L 448.082031 402.832031 L 447.238281 402.832031 L 446.898438 403.59375 C 446.398438 404.515625 445.9375 405.109375 445.136719 405.777344 L 444.292969 405.777344 L 443.953125 406.539062 C 443.453125 407.460938 442.988281 408.054688 442.1875 408.722656 L 441.347656 408.722656 L 441.347656 409.566406 C 440.714844 410.1875 440.714844 410.1875 439.847656 410.90625 C 438.707031 411.875 437.621094 412.855469 436.585938 413.933594 C 435.027344 415.519531 433.316406 416.882812 431.585938 418.273438 C 430.484375 419.179688 429.425781 420.121094 428.378906 421.089844 C 426.003906 423.25 423.492188 425.207031 420.953125 427.160156 C 420.40625 427.585938 419.863281 428.015625 419.324219 428.445312 C 416.691406 430.519531 413.648438 432.316406 410.339844 433.019531 C 407.589844 433.351562 404.703125 433.640625 402.105469 432.585938 C 401.042969 431.941406 400.351562 431.40625 399.570312 430.453125 L 398.957031 429.734375 C 398 428.320312 397.597656 427.136719 397.441406 425.429688 C 397.429688 420.886719 397.855469 416.742188 399.964844 412.644531 C 401.324219 410.316406 402.976562 408.246094 404.726562 406.199219 L 404.726562 407.460938 C 404.140625 408.402344 404.140625 408.402344 403.359375 409.460938 C 400.976562 412.792969 399.480469 415.542969 398.832031 419.667969 C 398.582031 422.277344 398.433594 424.996094 399.152344 427.535156 C 399.695312 428.699219 400.324219 429.601562 401.289062 430.449219 C 403.007812 431.550781 404.816406 431.769531 406.832031 431.875 C 410.46875 431.554688 413.496094 430.453125 416.570312 428.511719 C 418.613281 427.078125 420.515625 425.503906 422.40625 423.878906 C 423.082031 423.300781 423.761719 422.726562 424.441406 422.152344 C 424.910156 421.757812 425.375 421.363281 425.84375 420.964844 C 427.257812 419.765625 428.691406 418.589844 430.140625 417.433594 C 433.734375 414.507812 437.113281 411.296875 440.375 408.007812 C 441.390625 406.984375 442.425781 406.019531 443.53125 405.09375 C 444.789062 404.015625 445.789062 402.875 446.820312 401.566406 L 447.660156 401.566406 L 447.933594 400.878906 C 448.707031 399.53125 449.765625 398.535156 450.871094 397.464844 L 451.527344 396.816406 C 452.0625 396.296875 452.597656 395.773438 453.132812 395.253906 " fill-opacity="1" fill-rule="nonzero"/><path fill="#6f32d7" d="M 485.964844 72.398438 L 486.386719 73.242188 C 486.117188 73.996094 485.8125 74.742188 485.492188 75.476562 C 484.511719 77.929688 483.839844 80.351562 483.257812 82.921875 C 479.492188 99.308594 474.0625 115.816406 465.761719 130.488281 L 465.339844 129.648438 C 465.617188 128.886719 465.617188 128.886719 466.085938 127.957031 L 466.605469 126.902344 L 467.179688 125.753906 C 473.492188 112.753906 477.9375 99.054688 481.335938 85.027344 C 483.53125 76.027344 483.53125 76.027344 485.542969 72.820312 Z M 485.964844 72.398438 " fill-opacity="1" fill-rule="nonzero"/><path fill="#6f32d7" d="M 335.691406 109.441406 L 336.113281 110.285156 C 335.761719 111.078125 335.382812 111.855469 334.984375 112.625 C 331.894531 119.222656 331.433594 125.789062 331.90625 133.015625 C 332.554688 140.035156 334.898438 146.417969 338.972656 152.179688 C 340.414062 154.082031 341.964844 155.785156 343.691406 157.429688 L 343.269531 158.691406 C 338.660156 154.332031 334.84375 149.5 332.839844 143.382812 C 330.507812 135.484375 329.742188 127.507812 331.488281 119.402344 C 332.441406 115.863281 333.742188 112.546875 335.691406 109.441406 " fill-opacity="1" fill-rule="nonzero"/><path fill="#6f32d7" d="M 318.855469 324.539062 L 319.699219 324.957031 C 319.898438 325.898438 320.054688 326.847656 320.199219 327.800781 C 321.472656 335.210938 324.316406 341.746094 327.9375 348.289062 C 333.195312 357.800781 333.195312 357.800781 334.429688 362 L 334.714844 362.921875 C 335.234375 364.777344 335.351562 366.410156 335.273438 368.316406 C 334.535156 367.027344 334.15625 365.710938 333.777344 364.28125 C 332.472656 359.382812 330.398438 355.011719 327.722656 350.714844 C 323.257812 343.476562 319.070312 334.195312 318.8125 325.578125 Z M 332.324219 255.503906 L 333.167969 255.925781 C 331.707031 264.71875 328.59375 273.132812 325.738281 281.550781 C 324.6875 284.65625 323.675781 287.769531 322.746094 290.917969 L 322.492188 291.785156 C 321.730469 294.398438 321.109375 297.039062 320.539062 299.703125 C 320.09375 298.988281 320.09375 298.988281 319.699219 298.019531 C 319.800781 297.046875 319.800781 297.046875 320.09375 295.972656 L 320.414062 294.773438 L 320.777344 293.496094 L 321.140625 292.164062 C 321.492188 290.886719 321.855469 289.613281 322.222656 288.335938 L 322.484375 287.429688 C 323.332031 284.542969 324.292969 281.699219 325.261719 278.855469 C 325.617188 277.808594 325.972656 276.757812 326.328125 275.710938 L 326.597656 274.90625 C 328.753906 268.507812 330.558594 262.019531 332.324219 255.503906 M 299.914062 193.628906 C 298.546875 194.394531 297.253906 194.730469 295.722656 195.046875 L 294.234375 195.355469 L 292.652344 195.679688 C 291.570312 195.910156 290.488281 196.136719 289.40625 196.367188 L 287.835938 196.699219 L 286.445312 196.996094 L 285.4375 197.210938 C 277.082031 199.015625 268.632812 201.945312 260.921875 205.625 C 259.714844 206.164062 258.703125 206.496094 257.398438 206.675781 L 257.820312 205.835938 C 258.515625 205.4375 258.515625 205.4375 259.421875 205.027344 L 260.445312 204.5625 L 261.558594 204.074219 L 262.707031 203.5625 C 273.859375 198.675781 287.640625 193.417969 299.914062 193.628906 M 229.617188 223.933594 L 230.460938 224.355469 C 228.5625 226.082031 226.648438 227.757812 224.621094 229.328125 C 222.597656 230.921875 220.8125 232.691406 219.027344 234.539062 C 218.140625 235.414062 217.222656 236.257812 216.277344 237.066406 C 214.515625 238.605469 212.851562 240.21875 211.203125 241.875 L 210.300781 242.773438 C 209.679688 243.394531 209.058594 244.015625 208.4375 244.640625 C 207.496094 245.585938 206.550781 246.527344 205.605469 247.46875 L 203.78125 249.292969 L 202.941406 250.136719 C 201.324219 251.761719 199.769531 253.441406 198.277344 255.183594 C 197.34375 256.25 196.351562 257.242188 195.339844 258.242188 L 194.234375 259.332031 L 193.417969 260.136719 L 193.417969 258.871094 C 193.996094 257.953125 193.996094 257.953125 194.679688 257.1875 L 195.523438 257.1875 L 195.523438 256.347656 L 196.363281 256.347656 L 196.664062 255.636719 C 197.347656 254.414062 198.191406 253.570312 199.183594 252.578125 L 199.789062 251.96875 C 200.449219 251.304688 201.109375 250.644531 201.769531 249.988281 L 203.148438 248.605469 C 204.109375 247.644531 205.074219 246.683594 206.035156 245.722656 C 207.273438 244.492188 208.507812 243.257812 209.738281 242.019531 C 210.6875 241.070312 211.632812 240.121094 212.582031 239.171875 C 213.039062 238.71875 213.496094 238.261719 213.949219 237.804688 C 214.582031 237.171875 215.21875 236.535156 215.855469 235.90625 L 216.953125 234.808594 L 217.832031 234.039062 L 218.675781 234.039062 L 218.675781 233.195312 C 219.203125 232.644531 219.203125 232.644531 219.988281 231.984375 L 220.90625 231.207031 L 222.042969 230.25 C 222.535156 229.824219 223.027344 229.402344 223.519531 228.976562 L 225.09375 227.617188 L 225.863281 226.957031 C 227.085938 225.90625 228.308594 224.878906 229.617188 223.933594 M 383.257812 355.265625 L 384.101562 355.265625 L 384.101562 377.574219 L 382.835938 376.3125 C 382.683594 375.417969 382.683594 375.417969 382.6875 374.375 L 382.683594 373.183594 L 382.699219 371.90625 L 382.703125 370.589844 C 382.703125 369.671875 382.710938 368.753906 382.71875 367.832031 C 382.730469 366.425781 382.738281 365.019531 382.738281 363.609375 L 382.75 360.933594 L 382.757812 359.65625 L 382.769531 358.46875 L 382.777344 357.421875 C 382.835938 356.527344 382.835938 356.527344 383.257812 355.265625 M 334.007812 407.039062 L 334.429688 407.039062 C 334.214844 415.34375 331.066406 423.386719 328.117188 431.035156 L 327.671875 432.1875 C 327.273438 433.207031 326.867188 434.226562 326.457031 435.242188 L 326.097656 436.144531 C 325.8125 436.835938 325.492188 437.515625 325.167969 438.1875 L 324.328125 438.609375 C 324.46875 436.882812 324.964844 435.546875 325.707031 434.007812 C 326.894531 431.429688 327.832031 428.804688 328.722656 426.113281 L 329.214844 424.632812 C 330.679688 420.136719 331.84375 415.59375 332.921875 410.992188 C 333.246094 409.664062 333.621094 408.351562 334.007812 407.039062 M 443.871094 160.375 L 443.871094 161.636719 C 441.648438 164.308594 438.910156 166.542969 436.199219 168.703125 C 435.433594 169.3125 434.679688 169.933594 433.933594 170.566406 C 430.816406 173.195312 427.523438 175.449219 424.089844 177.632812 L 423.210938 178.195312 C 422.347656 178.742188 421.484375 179.28125 420.617188 179.816406 L 419.808594 180.324219 C 419.152344 180.726562 418.464844 181.078125 417.773438 181.421875 L 416.511719 181 L 417.824219 180.257812 C 423.597656 176.949219 429.097656 173.292969 434.199219 169.015625 C 435.007812 168.390625 435.789062 167.949219 436.714844 167.53125 L 436.714844 166.6875 C 437.417969 166.070312 438.136719 165.472656 438.875 164.898438 C 440.660156 163.472656 442.300781 162.03125 443.871094 160.375 M 415.25 181.421875 L 416.511719 181.84375 C 396.40625 192.269531 396.40625 192.269531 387.046875 191.945312 C 388.175781 191.191406 388.710938 190.945312 389.980469 190.664062 L 390.984375 190.429688 L 392.070312 190.183594 C 399.953125 188.28125 407.527344 185.363281 414.828125 181.84375 Z M 436.714844 338.007812 C 438.101562 338.402344 438.847656 338.875 439.898438 339.875 C 441.628906 342.152344 442.40625 344.671875 442.832031 347.472656 C 443.003906 350.332031 442.71875 352.421875 441.507812 354.992188 C 440.796875 356.371094 440.042969 357.726562 439.242188 359.054688 L 438.550781 360.226562 C 438.09375 360.96875 437.621094 361.699219 437.136719 362.421875 L 436.714844 361.578125 C 437.046875 360.808594 437.046875 360.808594 437.582031 359.882812 L 438.15625 358.875 L 438.769531 357.816406 C 439.164062 357.128906 439.558594 356.441406 439.949219 355.753906 L 440.484375 354.828125 C 441.671875 352.609375 441.507812 350.210938 441.464844 347.761719 C 441.363281 345.46875 440.796875 343.378906 439.664062 341.375 C 438.835938 340.457031 438.835938 340.457031 437.980469 339.691406 C 437.550781 339.28125 437.128906 338.859375 436.714844 338.429688 Z M 253.191406 208.359375 L 254.03125 208.78125 L 253.25 209.238281 C 252.054688 209.933594 250.859375 210.632812 249.664062 211.332031 L 248.433594 212.050781 C 245.714844 213.648438 243.125 215.363281 240.5625 217.199219 C 239.878906 217.675781 239.195312 218.148438 238.511719 218.621094 C 237.320312 219.449219 236.148438 220.296875 234.996094 221.175781 L 234.300781 221.703125 C 233.648438 222.203125 232.992188 222.707031 232.339844 223.210938 L 231.300781 223.933594 L 230.460938 223.933594 L 230.460938 223.09375 C 231.324219 222.378906 231.324219 222.378906 232.511719 221.542969 L 233.8125 220.621094 L 235.089844 219.726562 L 236.039062 219.042969 C 247.839844 210.597656 247.839844 210.597656 253.191406 208.359375 M 499.433594 73.664062 L 500.277344 73.664062 C 501.300781 76.429688 501.929688 79.167969 502.382812 82.082031 L 502.527344 82.992188 C 502.824219 85.078125 502.847656 87.132812 502.804688 89.238281 L 501.960938 89.238281 C 501.242188 85.546875 500.691406 81.832031 500.144531 78.113281 C 499.925781 76.628906 499.6875 75.144531 499.433594 73.664062 M 494.765625 68.207031 C 496.441406 68.980469 497.785156 70.191406 499.015625 71.558594 C 499.53125 72.496094 499.53125 72.496094 499.855469 73.242188 C 498.5 72.648438 497.671875 71.933594 496.648438 70.875 C 495.664062 69.996094 495.027344 69.507812 493.738281 69.203125 C 492.632812 69.164062 491.679688 69.222656 490.597656 69.453125 C 489.171875 70.15625 489.171875 70.15625 488.070312 71.136719 L 487.070312 71.875 L 486.386719 72.398438 C 486.851562 71.144531 487.398438 70.554688 488.386719 69.613281 C 490.4375 68.011719 492.179688 67.445312 494.765625 68.207031 " fill-opacity="1" fill-rule="nonzero"/><path fill="#6f32d7" d="M 370.210938 88.816406 L 370.210938 89.238281 L 368.746094 89.453125 C 363.226562 90.300781 358.214844 91.621094 353.105469 93.929688 L 352.109375 94.289062 L 351.269531 93.867188 C 357.28125 90.667969 363.3125 88.546875 370.210938 88.816406 " fill-opacity="1" fill-rule="nonzero"/><path fill="#6f32d7" d="M 347.058594 96.394531 L 347.898438 96.8125 C 347.355469 97.394531 346.796875 97.953125 346.214844 98.496094 L 345.375 98.496094 L 345.375 99.339844 C 344.769531 99.902344 344.769531 99.902344 343.929688 100.578125 C 340.984375 103.074219 338.570312 106.171875 336.535156 109.441406 L 336.113281 108.179688 C 337.824219 105.234375 340.226562 102.691406 342.613281 100.285156 L 343.273438 99.617188 C 343.816406 99.085938 344.382812 98.578125 344.953125 98.078125 L 345.796875 98.078125 L 345.796875 97.234375 Z M 325.589844 235.300781 C 326.75 235.679688 327.539062 235.976562 328.378906 236.875 C 330.550781 240.242188 332.46875 243.875 332.746094 247.929688 L 331.90625 247.929688 L 331.425781 246.375 L 330.773438 244.324219 C 330.671875 243.988281 330.566406 243.652344 330.460938 243.304688 C 329.457031 240.191406 327.960938 238.003906 325.589844 235.722656 Z M 325.589844 235.300781 " fill-opacity="1" fill-rule="nonzero"/><g fill="#6a3cd4" fill-opacity="0.4"><g transform="translate(106.71116, 637.843044)"><g><path d="M 54.4375 -64.90625 L 54.4375 -52.828125 L 36.109375 -52.828125 L 36.109375 0 L 24.015625 0 L 24.015625 -52.828125 L 5.6875 -52.828125 L 5.6875 -64.90625 Z M 54.4375 -64.90625 "/></g></g></g><g fill="#6a3cd4" fill-opacity="0.4"><g transform="translate(166.83632, 637.843044)"><g><path d="M 43.984375 0 L 39.1875 -16.140625 L 23.203125 -16.140625 L 18.421875 0 L 5.6875 0 L 24.828125 -64.90625 L 37.5625 -64.90625 L 37.5625 -64.75 L 56.640625 0 Z M 26.78125 -28.234375 L 35.625 -28.234375 L 31.234375 -43.328125 Z M 26.78125 -28.234375 "/></g></g></g><g fill="#6a3cd4" fill-opacity="0.4"><g transform="translate(229.152281, 637.843044)"><g><path d="M 46.8125 -83.90625 L 34.734375 -67.671875 L 25.15625 -67.671875 L 31.234375 -83.90625 Z M 44.21875 -64.90625 L 56.390625 -64.90625 L 56.390625 0 L 41.21875 0 L 17.84375 -40.65625 L 17.84375 0 L 5.6875 0 L 5.6875 -64.90625 L 18.984375 -64.90625 L 44.21875 -21.09375 Z M 44.21875 -64.90625 "/></g></g></g><g fill="#6a3cd4" fill-opacity="0.4"><g transform="translate(291.224815, 637.843044)"><g><path d="M 53.234375 -18.09375 L 62.390625 -9 C 59.421875 -6.03125 55.90625 -3.664062 51.84375 -1.90625 C 47.789062 -0.144531 43.460938 0.734375 38.859375 0.734375 C 34.265625 0.734375 29.960938 -0.128906 25.953125 -1.859375 C 21.953125 -3.597656 18.4375 -5.976562 15.40625 -9 C 12.382812 -12.03125 10.007812 -15.546875 8.28125 -19.546875 C 6.550781 -23.554688 5.6875 -27.859375 5.6875 -32.453125 C 5.6875 -37.054688 6.550781 -41.359375 8.28125 -45.359375 C 10.007812 -49.359375 12.382812 -52.875 15.40625 -55.90625 C 18.4375 -58.9375 21.953125 -61.316406 25.953125 -63.046875 C 29.960938 -64.773438 34.265625 -65.640625 38.859375 -65.640625 C 43.460938 -65.640625 47.789062 -64.773438 51.84375 -63.046875 C 55.90625 -61.316406 59.421875 -58.9375 62.390625 -55.90625 L 53.234375 -46.8125 C 51.554688 -48.8125 49.484375 -50.378906 47.015625 -51.515625 C 44.554688 -52.660156 41.835938 -53.234375 38.859375 -53.234375 C 35.078125 -53.234375 31.710938 -52.296875 28.765625 -50.421875 C 25.816406 -48.554688 23.503906 -46.054688 21.828125 -42.921875 C 20.148438 -39.785156 19.3125 -36.296875 19.3125 -32.453125 C 19.3125 -28.671875 20.148438 -25.195312 21.828125 -22.03125 C 23.503906 -18.863281 25.816406 -16.347656 28.765625 -14.484375 C 31.710938 -12.617188 35.078125 -11.6875 38.859375 -11.6875 C 41.835938 -11.6875 44.554688 -12.253906 47.015625 -13.390625 C 49.484375 -14.523438 51.554688 -16.09375 53.234375 -18.09375 Z M 53.234375 -18.09375 "/></g></g></g><g fill="#6a3cd4" fill-opacity="0.4"><g transform="translate(359.301754, 637.843044)"><g><path d="M 36.03125 -65.71875 C 40.625 -65.71875 44.921875 -64.851562 48.921875 -63.125 C 52.929688 -61.394531 56.445312 -59.015625 59.46875 -55.984375 C 62.5 -52.953125 64.878906 -49.4375 66.609375 -45.4375 C 68.347656 -41.4375 69.21875 -37.132812 69.21875 -32.53125 C 69.21875 -27.9375 68.347656 -23.632812 66.609375 -19.625 C 64.878906 -15.625 62.5 -12.109375 59.46875 -9.078125 C 56.445312 -6.054688 52.929688 -3.675781 48.921875 -1.9375 C 44.921875 -0.207031 40.625 0.65625 36.03125 0.65625 C 31.425781 0.65625 27.125 -0.207031 23.125 -1.9375 C 19.125 -3.675781 15.609375 -6.054688 12.578125 -9.078125 C 9.546875 -12.109375 7.164062 -15.625 5.4375 -19.625 C 3.707031 -23.632812 2.84375 -27.9375 2.84375 -32.53125 C 2.84375 -37.132812 3.707031 -41.4375 5.4375 -45.4375 C 7.164062 -49.4375 9.546875 -52.953125 12.578125 -55.984375 C 15.609375 -59.015625 19.125 -61.394531 23.125 -63.125 C 27.125 -64.851562 31.425781 -65.71875 36.03125 -65.71875 Z M 36.03125 -53.3125 C 32.238281 -53.3125 28.867188 -52.375 25.921875 -50.5 C 22.972656 -48.632812 20.660156 -46.132812 18.984375 -43 C 17.304688 -39.863281 16.46875 -36.375 16.46875 -32.53125 C 16.46875 -28.75 17.304688 -25.273438 18.984375 -22.109375 C 20.660156 -18.941406 22.972656 -16.425781 25.921875 -14.5625 C 28.867188 -12.695312 32.238281 -11.765625 36.03125 -11.765625 C 39.863281 -11.765625 43.253906 -12.695312 46.203125 -14.5625 C 49.148438 -16.425781 51.460938 -18.941406 53.140625 -22.109375 C 54.816406 -25.273438 55.65625 -28.75 55.65625 -32.53125 C 55.65625 -36.375 54.816406 -39.863281 53.140625 -43 C 51.460938 -46.132812 49.148438 -48.632812 46.203125 -50.5 C 43.253906 -52.375 39.863281 -53.3125 36.03125 -53.3125 Z M 36.03125 -53.3125 "/></g></g></g><g fill="#6a3cd4" fill-opacity="0.4"><g transform="translate(431.354577, 637.843044)"><g><path d="M 70.1875 -65 L 83.5 -65 L 70.4375 0 L 57.125 0 L 44.625 -42.359375 L 32.125 0 L 18.828125 0 L 5.6875 -65 L 18.984375 -65 L 26.6875 -26.859375 L 37.890625 -65 L 37.890625 -65.078125 L 51.28125 -65.078125 L 62.5625 -26.859375 Z M 70.1875 -65 "/></g></g></g><g fill="#6a3cd4" fill-opacity="0.4"><g transform="translate(520.52808, 637.843044)"><g><path d="M 44.21875 -64.90625 L 56.390625 -64.90625 L 56.390625 0 L 41.21875 0 L 17.84375 -40.65625 L 17.84375 0 L 5.6875 0 L 5.6875 -64.90625 L 18.984375 -64.90625 L 44.21875 -21.09375 Z M 44.21875 -64.90625 "/></g></g></g><g fill="#6a3cd4" fill-opacity="0.4"><g transform="translate(582.600602, 637.843044)"><g><path d="M 17.84375 -0.25 L 17.84375 -64.90625 L 5.6875 -64.90625 L 5.6875 -0.25 Z M 17.84375 -0.25 "/></g></g></g><g fill="#6a3cd4" fill-opacity="0.4"><g transform="translate(606.131393, 637.843044)"><g><path d="M 43.984375 0 L 39.1875 -16.140625 L 23.203125 -16.140625 L 18.421875 0 L 5.6875 0 L 24.828125 -64.90625 L 37.5625 -64.90625 L 37.5625 -64.75 L 56.640625 0 Z M 26.78125 -28.234375 L 35.625 -28.234375 L 31.234375 -43.328125 Z M 26.78125 -28.234375 "/></g></g></g><g fill="#6f32d7" fill-opacity="1"><g transform="translate(103.124871, 634.256773)"><g><path d="M 54.4375 -64.90625 L 54.4375 -52.828125 L 36.109375 -52.828125 L 36.109375 0 L 24.015625 0 L 24.015625 -52.828125 L 5.6875 -52.828125 L 5.6875 -64.90625 Z M 54.4375 -64.90625 "/></g></g></g><g fill="#6f32d7" fill-opacity="1"><g transform="translate(163.250032, 634.256773)"><g><path d="M 43.984375 0 L 39.1875 -16.140625 L 23.203125 -16.140625 L 18.421875 0 L 5.6875 0 L 24.828125 -64.90625 L 37.5625 -64.90625 L 37.5625 -64.75 L 56.640625 0 Z M 26.78125 -28.234375 L 35.625 -28.234375 L 31.234375 -43.328125 Z M 26.78125 -28.234375 "/></g></g></g><g fill="#6f32d7" fill-opacity="1"><g transform="translate(225.565993, 634.256773)"><g><path d="M 46.8125 -83.90625 L 34.734375 -67.671875 L 25.15625 -67.671875 L 31.234375 -83.90625 Z M 44.21875 -64.90625 L 56.390625 -64.90625 L 56.390625 0 L 41.21875 0 L 17.84375 -40.65625 L 17.84375 0 L 5.6875 0 L 5.6875 -64.90625 L 18.984375 -64.90625 L 44.21875 -21.09375 Z M 44.21875 -64.90625 "/></g></g></g><g fill="#6f32d7" fill-opacity="1"><g transform="translate(287.638526, 634.256773)"><g><path d="M 53.234375 -18.09375 L 62.390625 -9 C 59.421875 -6.03125 55.90625 -3.664062 51.84375 -1.90625 C 47.789062 -0.144531 43.460938 0.734375 38.859375 0.734375 C 34.265625 0.734375 29.960938 -0.128906 25.953125 -1.859375 C 21.953125 -3.597656 18.4375 -5.976562 15.40625 -9 C 12.382812 -12.03125 10.007812 -15.546875 8.28125 -19.546875 C 6.550781 -23.554688 5.6875 -27.859375 5.6875 -32.453125 C 5.6875 -37.054688 6.550781 -41.359375 8.28125 -45.359375 C 10.007812 -49.359375 12.382812 -52.875 15.40625 -55.90625 C 18.4375 -58.9375 21.953125 -61.316406 25.953125 -63.046875 C 29.960938 -64.773438 34.265625 -65.640625 38.859375 -65.640625 C 43.460938 -65.640625 47.789062 -64.773438 51.84375 -63.046875 C 55.90625 -61.316406 59.421875 -58.9375 62.390625 -55.90625 L 53.234375 -46.8125 C 51.554688 -48.8125 49.484375 -50.378906 47.015625 -51.515625 C 44.554688 -52.660156 41.835938 -53.234375 38.859375 -53.234375 C 35.078125 -53.234375 31.710938 -52.296875 28.765625 -50.421875 C 25.816406 -48.554688 23.503906 -46.054688 21.828125 -42.921875 C 20.148438 -39.785156 19.3125 -36.296875 19.3125 -32.453125 C 19.3125 -28.671875 20.148438 -25.195312 21.828125 -22.03125 C 23.503906 -18.863281 25.816406 -16.347656 28.765625 -14.484375 C 31.710938 -12.617188 35.078125 -11.6875 38.859375 -11.6875 C 41.835938 -11.6875 44.554688 -12.253906 47.015625 -13.390625 C 49.484375 -14.523438 51.554688 -16.09375 53.234375 -18.09375 Z M 53.234375 -18.09375 "/></g></g></g><g fill="#6f32d7" fill-opacity="1"><g transform="translate(355.715465, 634.256773)"><g><path d="M 36.03125 -65.71875 C 40.625 -65.71875 44.921875 -64.851562 48.921875 -63.125 C 52.929688 -61.394531 56.445312 -59.015625 59.46875 -55.984375 C 62.5 -52.953125 64.878906 -49.4375 66.609375 -45.4375 C 68.347656 -41.4375 69.21875 -37.132812 69.21875 -32.53125 C 69.21875 -27.9375 68.347656 -23.632812 66.609375 -19.625 C 64.878906 -15.625 62.5 -12.109375 59.46875 -9.078125 C 56.445312 -6.054688 52.929688 -3.675781 48.921875 -1.9375 C 44.921875 -0.207031 40.625 0.65625 36.03125 0.65625 C 31.425781 0.65625 27.125 -0.207031 23.125 -1.9375 C 19.125 -3.675781 15.609375 -6.054688 12.578125 -9.078125 C 9.546875 -12.109375 7.164062 -15.625 5.4375 -19.625 C 3.707031 -23.632812 2.84375 -27.9375 2.84375 -32.53125 C 2.84375 -37.132812 3.707031 -41.4375 5.4375 -45.4375 C 7.164062 -49.4375 9.546875 -52.953125 12.578125 -55.984375 C 15.609375 -59.015625 19.125 -61.394531 23.125 -63.125 C 27.125 -64.851562 31.425781 -65.71875 36.03125 -65.71875 Z M 36.03125 -53.3125 C 32.238281 -53.3125 28.867188 -52.375 25.921875 -50.5 C 22.972656 -48.632812 20.660156 -46.132812 18.984375 -43 C 17.304688 -39.863281 16.46875 -36.375 16.46875 -32.53125 C 16.46875 -28.75 17.304688 -25.273438 18.984375 -22.109375 C 20.660156 -18.941406 22.972656 -16.425781 25.921875 -14.5625 C 28.867188 -12.695312 32.238281 -11.765625 36.03125 -11.765625 C 39.863281 -11.765625 43.253906 -12.695312 46.203125 -14.5625 C 49.148438 -16.425781 51.460938 -18.941406 53.140625 -22.109375 C 54.816406 -25.273438 55.65625 -28.75 55.65625 -32.53125 C 55.65625 -36.375 54.816406 -39.863281 53.140625 -43 C 51.460938 -46.132812 49.148438 -48.632812 46.203125 -50.5 C 43.253906 -52.375 39.863281 -53.3125 36.03125 -53.3125 Z M 36.03125 -53.3125 "/></g></g></g><g fill="#6f32d7" fill-opacity="1"><g transform="translate(427.768288, 634.256773)"><g><path d="M 70.1875 -65 L 83.5 -65 L 70.4375 0 L 57.125 0 L 44.625 -42.359375 L 32.125 0 L 18.828125 0 L 5.6875 -65 L 18.984375 -65 L 26.6875 -26.859375 L 37.890625 -65 L 37.890625 -65.078125 L 51.28125 -65.078125 L 62.5625 -26.859375 Z M 70.1875 -65 "/></g></g></g><g fill="#6f32d7" fill-opacity="1"><g transform="translate(516.941791, 634.256773)"><g><path d="M 44.21875 -64.90625 L 56.390625 -64.90625 L 56.390625 0 L 41.21875 0 L 17.84375 -40.65625 L 17.84375 0 L 5.6875 0 L 5.6875 -64.90625 L 18.984375 -64.90625 L 44.21875 -21.09375 Z M 44.21875 -64.90625 "/></g></g></g><g fill="#6f32d7" fill-opacity="1"><g transform="translate(579.014313, 634.256773)"><g><path d="M 17.84375 -0.25 L 17.84375 -64.90625 L 5.6875 -64.90625 L 5.6875 -0.25 Z M 17.84375 -0.25 "/></g></g></g><g fill="#6f32d7" fill-opacity="1"><g transform="translate(602.545105, 634.256773)"><g><path d="M 43.984375 0 L 39.1875 -16.140625 L 23.203125 -16.140625 L 18.421875 0 L 5.6875 0 L 24.828125 -64.90625 L 37.5625 -64.90625 L 37.5625 -64.75 L 56.640625 0 Z M 26.78125 -28.234375 L 35.625 -28.234375 L 31.234375 -43.328125 Z M 26.78125 -28.234375 "/></g></g></g></svg>